<svg xmlns="http://www.w3.org/2000/svg" width="360" height="340" viewBox="0 0 360 340"><path fill="#ECECEC" d="M326 96V77.27L187.19 47.046 53 77.27V96z"/><path fill="#808080" d="M53 96v95.505c8-.653 273 0 273 0V96H53zM53 196v96.047c8-.653 273 0 273 0V196H53z"/><path fill="#638DD2" d="M176.6 61H201v11.087s-1.245 11.27-12.2 13.097c0 0-10.095-2.828-12.316-13.055L176.6 61z"/><path fill="none" d="M71.177 111.03h229.976v72.808H71.177z"/><text transform="translate(97.842 134.296)"><tspan x="0" y="0" fill="#fff" font-family="'PerpetuaTitlingMT-Light'" font-size="32.358">RITENOUR</tspan><tspan x="6.747" y="38.83" fill="#fff" font-family="'PerpetuaTitlingMT-Light'" font-size="32.358">BUILDING</tspan></text><path fill="none" d="M96.074 213.183h188.323v67.307H96.074z"/><text transform="translate(103.386 231.285)"><tspan x="0" y="0" fill="#fff" font-family="'SourceSansPro-Regular'" font-size="25.424">Office of Digital</tspan><tspan x="2.568" y="30.51" fill="#fff" font-family="'SourceSansPro-Regular'" font-size="25.424">Learning (ODL)</tspan></text><path fill="#666" d="M53 190h273v6H53z"/><path opacity=".5" fill="#939393" d="M74.32 72.664L53 77.094V292h273v-88.94S173.706 164.925 74.32 72.665z"/></svg>