<svg xmlns="http://www.w3.org/2000/svg" width="324" height="340" viewBox="0 0 324 340"><path fill="#0071B6" d="M262 273.57c0 14.597-11.833 26.43-26.43 26.43H99.43C84.833 300 73 288.167 73 273.57V71.43C73 56.833 84.833 45 99.43 45h136.14C250.167 45 262 56.833 262 71.43v202.14z"/><path fill="#fff" d="M102 75h134v55H102z"/><circle fill="#fff" cx="114.636" cy="159.199" r="12.339"/><circle fill="#fff" cx="114.636" cy="193.895" r="12.339"/><circle fill="#fff" cx="114.636" cy="228.463" r="12.339"/><circle fill="#fff" cx="114.636" cy="263.16" r="12.339"/><circle fill="#fff" cx="151.535" cy="159.199" r="12.339"/><circle fill="#fff" cx="151.535" cy="193.895" r="12.339"/><circle fill="#fff" cx="151.535" cy="228.463" r="12.339"/><circle fill="#fff" cx="151.535" cy="263.16" r="12.339"/><circle fill="#fff" cx="186.231" cy="159.199" r="12.339"/><circle fill="#fff" cx="186.231" cy="193.895" r="12.339"/><circle fill="#fff" cx="186.231" cy="228.463" r="12.339"/><circle fill="#fff" cx="186.231" cy="263.16" r="12.339"/><circle fill="#fff" cx="223.13" cy="159.199" r="12.339"/><circle fill="#fff" cx="223.13" cy="193.895" r="12.339"/><circle fill="#fff" cx="223.13" cy="228.463" r="12.339"/><circle fill="#fff" cx="223.13" cy="263.16" r="12.339"/><path opacity=".5" fill="#ECECEC" d="M262 233.84v39.57c0 14.596-11.833 26.59-26.43 26.59H99.43C84.833 300 73 288.006 73 273.41V160.19s54.5 54.867 189 73.65z"/><text transform="translate(126.098 113.03)" fill="#0071B6" font-family="'SourceSansPro-Regular'" font-size="36" letter-spacing="3">123.4</text></svg>