<svg xmlns="http://www.w3.org/2000/svg" viewBox="-196 225.5 373.5 574.5" enable-background="new -196 225.5 373.5 574.5"><path fill="#808080" d="M131 730.8l-4.5 33.4-18.2-28.2-13.5-58.5 22.7-5.2z"/><path fill="#B3B3B3" d="M109 737l17.6 27.6 4.3-32.4-5.5 5.3-5.3-3-3.4 4.1z"/><path fill="none" stroke="#000" stroke-miterlimit="10" d="M123 758.9"/><path fill="#333" d="M120.8 755.6l5.8 9.1 1.4-10.3z"/><path fill="#4D4D4D" d="M4.5 368.7c0 5.5-4.5 10-10 10h-8.7c-5.5 0-10-4.5-10-10v-83.9c0-5.5 4.5-10 10-10h8.7c5.5 0 10 4.5 10 10v83.9zM-36.5 503.6l-8.6 13-9.5-2c-13.2 26-28 123.8-28 123.8-1.5 7.5-5.8 9.2-5.8 9.2l-14.8 93.5-13.2 21.5-5.5-26.5 9-92.2c-2.9-2.9-2.5-9.2-2.5-9.2 11.2-101.2 30.8-161.8 30.8-161.8s16-41.8 30.6-50.5c0 0 2.7 38 35.3 42.7 0 0-7.2 16.7-15.2 39.7"/><path fill="none" stroke="#000" stroke-miterlimit="10" d="M62.5 585.1"/><path fill="#4D4D4D" d="M125.2 669c1.2 5.4-2.3 10.7-7.7 11.9l-20.2 4.4c-5.4 1.2-10.7-2.3-11.9-7.7l-20.6-95.5c-1.2-5.4 2.3-10.7 7.7-11.9l20.2-4.4c5.4-1.2 10.7 2.3 11.9 7.7l20.6 95.5z"/><path fill="none" stroke="#000" stroke-miterlimit="10" d="M146.8 425.7"/><path fill="#333" d="M100.7 568.1C85 478.4 35.9 397.3 35.9 397.3c-19.7-37-46.2-33.5-46.2-33.5-35.2 0-42.2 28.5-42.2 28.5s-3.2 13.5-12 14.5c-11.4 1.3-22-21-22-21-4.5-8.5-12.8-6.2-12.8-6.2-14.5 5-7 44.2-7 44.2 9.7 50.5 44 68.4 44 68.4 46 27.9 84.7 10.8 84.7 10.8 7.5-3 12.5-.8 12.5-.8 6.8 2.5 9.2 10 9.2 10s15 47.2 22.5 65S89.4 590 89.4 590c16.3-4.4 11.3-21.9 11.3-21.9zm-118-89.2s-2.5 6.5-9.8 4-38.8-10.8-53.8-55c0 0-2.2-9.5 3.8-11.8s9.2 7.2 9.2 7.2 7.8 34.2 43.5 45.8c.1 0 9.6 2.3 7.1 9.8z"/><path fill="none" stroke="#000" stroke-miterlimit="10" d="M-56 374.6"/><path fill="#B3B3B3" d="M-33.3 377.1s24-16 47 1.1c0 0 15.9 9.1 50.6 89.4 11.3 26.1 19.5 56.1 30 98.6 0 0 2.3 9.2-6.7 12.5 0 0-12.4 4-16.1-7.7s-13.7-40.5-13.7-40.5-10.6-47.1-42.1-59.1c0 0-9.1-3.3-20-5.9-10.6-2.6-39.8-14.6-44.4-46.6-4.2-28.5 15.4-41.8 15.4-41.8z"/><circle fill="#333" cx="-10.7" cy="410" r="16"/><path fill="#808080" d="M-22.5 431.6s9.8 15.2 28 16.5c0 0 7.8 1 7 8.2s-9 5.8-9 5.8-22-.8-37.8-23.8c0 0-3.2-6.5 1.8-9.8s10 3.1 10 3.1z"/><circle fill="#333" cx="-8.2" cy="451.9" r="6.4"/><path fill="#B3B3B3" d="M-44.1 503l5.9-6.6 1.5 8.8-4 13.9c-.2.7-1 1-1.9.8l-4.3-1.2c-.9-.2-1.4-1-1.2-1.7l4-14z"/><path fill="none" stroke="#B3B3B3" stroke-linecap="round" stroke-linejoin="round" stroke-miterlimit="10" d="M-38.5 497.2l2.6-8.2M-19 502.2l.7-8.6M-1 502.6l-.8-8.5M17.2 500.2l-2.2-8.3M34.8 493.9l-4.3-7.4M-55.7 489.8l3.6-7.8M-102.3 414.1l8.6-.9M-99.3 432.6l8.5-1.9M-92.2 450.7l7.6-4.2M-82.7 466.3l6.8-5.3M-70.3 479.1l5.5-6.7M-102.4 395.4l8.6.1"/><path fill="#3B3B3B" d="M120.8 754.8l5.8 9 1.4-10.2h-.1z"/><g fill="#fff"><path opacity=".5" enable-background="new" d="M120.1 734.5l-3.4 4.2-7.6-1.6 1.7 2.7 10.1 15.8 7.1-1.1 2.9-22.3-5.4 5.3z"/><path opacity=".08" enable-background="new" d="M-66.7 554.1c-8.8 37.5-15.8 84.4-15.8 84.4-1.5 7.5-5.8 9.2-5.8 9.2l-14.7 93.5-13.2 21.5-5.5-26.5 9-92.2c-2.9-2.9-2.5-9.2-2.5-9.2 4.3-38.8 9.8-71.5 15-97.2 14.2 9 13.6 9.5 33.5 16.5zM68.9 600.5l16.6 77.1c1.1 5.2 6 8.5 11.2 7.8.2 0 .5-.1.7-.1l20.2-4.4c.6-.1 1.2-.3 1.8-.6 4.3-1.8 6.9-6.5 5.9-11.3l-12.8-59.5c-.1 0-17.3-1.5-43.6-9z"/></g></svg>