<svg xmlns="http://www.w3.org/2000/svg" width="432" height="368" viewBox="0 0 432 368"><path fill="#939393" d="M183.91 278.105L177.952 324h74.738l-6.58-45.83zM268 320.648c0 2.403-1.948 4.352-4.352 4.352H167.35c-2.402 0-4.35-1.948-4.35-4.352v-.297c0-2.402 1.947-4.35 4.35-4.35h96.298c2.403 0 4.352 1.947 4.352 4.35v.298z"/><path fill="#666" d="M386 269.784c0 5.09-4.126 9.216-9.216 9.216H54.214c-5.09 0-9.214-4.126-9.214-9.216V53.214C45 48.127 49.126 44 54.215 44h322.57c5.09 0 9.215 4.126 9.215 9.215v216.57z"/><path fill="#E0E0E0" d="M60 60h312v173H60z"/><path opacity=".5" fill="#939393" d="M184 279H55s-4.505.243-7.25-3c-2.41-2.85-2.75-7.106-2.75-7.106V55.047s-.006-4.317 1.877-6.858c0 0 2.353-3.19 6.296-3.19H63.46S178 192.253 385 259.65v8.397s.528 4.893-1.926 7.565c-2.417 2.632-4.57 3.388-6.803 3.388H246l5.475 37H263s4.763-.107 5.047 4.872c0 0 .356 4.128-4.623 5.128H167s-4.006.33-4.22-4.294c0 0-.285-4.706 3.983-4.706H179l5-38z"/></svg>