<svg xmlns="http://www.w3.org/2000/svg" width="408" height="284" viewBox="0 0 408 284"><circle fill="#6FAFDE" cx="127.939" cy="196.258" r="16.52"/><circle fill="#6FAFDE" cx="191.909" cy="201.032" r="16.52"/><circle fill="#6FAFDE" cx="224.073" cy="201.032" r="16.52"/><circle fill="#6FAFDE" cx="256.274" cy="201.032" r="16.52"/><circle fill="#6FAFDE" cx="288.675" cy="201.032" r="16.52"/><path fill="#6FAFDE" d="M356 229.484V72.902C356 56.966 342.73 44 326.795 44H98.093C82.157 44 69 56.966 69 72.902v156.995c0 3.896 3.097 7.054 6.993 7.054 3.896 0 7.007-3.157 7.007-7.053v-.413L83.13 83.5c0-14.042 9.937-25.5 23.98-25.5H318.3c14.043 0 23.7 11.534 23.7 25.575v146.321c0 3.896 3.097 7.054 6.993 7.054 3.896 0 7.007-3.158 7.007-7.054v-.412z"/><circle fill="#A6CBE9" cx="195.022" cy="195.919" r="6.408"/><circle fill="#A6CBE9" cx="133.022" cy="192.919" r="6.408"/><circle fill="#A6CBE9" cx="227.022" cy="195.919" r="6.408"/><circle fill="#A6CBE9" cx="259.022" cy="195.919" r="6.408"/><circle fill="#A6CBE9" cx="292.022" cy="195.919" r="6.408"/><path fill="#6FAFDE" d="M140 53h5l-10.186 103.742 35.12-101.133 5.855-.247-43.808 125.885-4.72 1.11zM180.723 57.41l7.862 128.886 4.875-1.55 4.326-127.657-3.982-2.09H192l.67 3.422-2.265 72.96-4.532-73.886zM221 56h6v130h-6zM247.995 57.44l4.91 128.21 5.098-.756 7.742-128.587-4.72-2.266-5.1 79.873-3.775-80.06zM280.15 56.873l6.8 128.966 4.342.187L314.705 57.63l-5.287.187-19.07 105.552-4.91-107.44z"/><path fill="none" d="M195.042 137.83l-1.576 46.633c7.14.668 12.946 5.94 14.526 12.775 1.466-6.342 6.573-11.218 13.01-12.43V151M88.544 67.082c-3.434 4.442-5.413 10.18-5.413 16.44L83 229.485v.413c0 3.896-3.112 7.054-7.007 7.054S69 233.793 69 229.897V72.903c0-6.46 2.163-12.425 5.796-17.234M155.138 114.71l-22.84 65.628c7.005 1.915 12.16 8.308 12.16 15.92 0 9.123-7.395 16.52-16.52 16.52-9.123 0-16.52-7.397-16.52-16.52 0-8.983 7.174-16.276 16.102-16.5l7.69-78.084M292.068 181.77l-.548 3.004c7.765 1.35 13.675 8.107 13.675 16.26 0 9.123-7.396 16.52-16.52 16.52-8.02 0-14.7-5.718-16.2-13.298-1.5 7.58-8.18 13.297-16.202 13.297-7.866 0-14.435-5.502-16.1-12.863-1.666 7.362-8.235 12.863-16.1 12.863-7.84 0-14.39-5.466-16.082-12.79-1.692 7.324-8.242 12.79-16.08 12.79-9.125 0-16.52-7.396-16.52-16.52 0-7.954 5.622-14.59 13.108-16.164l-3.182-52.166M356 201V229.897c0 3.896-3.112 7.054-7.007 7.054S342 233.793 342 229.897V198M39 242.288M227 154v30.786c6.528 1.17 11.72 6.164 13.173 12.59 1.42-6.272 6.394-11.19 12.702-12.51l-.726-19.175"/><path fill="none" d="M150.453 111.728c-3.5-2.246-7.015-4.543-10.538-6.892l-5.1 51.93 15.638-45.038zM258.97 168.816l-.95 15.79c7.23.76 13.065 6.18 14.454 13.202 1.387-7.008 7.202-12.42 14.41-13.197l-.255-4.838"/><path opacity=".6" fill="#B9E5FB" d="M127.26 182.384l.26-2.625c-8.93.223-16.1 7.516-16.1 16.498 0 9.124 7.395 16.52 16.52 16.52 9.123 0 16.52-7.396 16.52-16.52 0-7.612-5.156-14.004-12.16-15.92l-.32.914-4.72 1.132zm12.17 10.535c0 3.538-2.87 6.407-6.408 6.407s-6.408-2.87-6.408-6.408c0-3.54 2.87-6.41 6.408-6.41s6.408 2.87 6.408 6.41zM207.99 197.302c-1.58-6.834-7.385-12.044-14.525-12.712l-.005.155-4.875 1.55-.087-1.427c-7.486 1.573-13.11 8.21-13.11 16.164 0 9.124 7.397 16.52 16.52 16.52 7.84 0 14.39-5.466 16.083-12.79-.276-1.2-.438-2.445-.438-3.73 0-1.285.162-2.53.44-3.73zm-12.968 5.025c-3.54 0-6.408-2.87-6.408-6.408 0-3.54 2.87-6.41 6.408-6.41s6.408 2.87 6.408 6.41c0 3.538-2.87 6.407-6.408 6.407zM240.173 197.375c-1.454-6.425-6.645-11.42-13.173-12.59V186h-6v-1.192c-6.436 1.212-11.543 6.152-13.01 12.494-.276 1.2-.438 2.445-.438 3.73 0 1.285.16 2.53.44 3.73 1.692 7.324 8.24 12.79 16.08 12.79 7.866 0 14.435-5.502 16.1-12.863-.266-1.18-.42-2.4-.42-3.658 0-1.26.154-2.48.42-3.657zm-13.15 4.952c-3.54 0-6.41-2.87-6.41-6.408 0-3.54 2.87-6.41 6.41-6.41s6.407 2.87 6.407 6.41c0 3.538-2.87 6.407-6.408 6.407zM272.474 197.81c-1.39-7.023-7.225-12.444-14.454-13.204l-.017.29-5.098.754-.03-.785c-6.308 1.32-11.283 6.24-12.702 12.51-.267 1.178-.42 2.398-.42 3.657 0 1.258.153 2.48.42 3.657 1.666 7.36 8.235 12.862 16.1 12.862 8.02 0 14.7-5.717 16.2-13.297-.205-1.043-.318-2.12-.318-3.223 0-1.104.113-2.18.32-3.223zm-13.452 4.517c-3.54 0-6.408-2.87-6.408-6.408 0-3.54 2.87-6.41 6.408-6.41s6.408 2.87 6.408 6.41c0 3.538-2.87 6.407-6.408 6.407zM286.95 185.84l-.066-1.227c-7.208.778-13.023 6.19-14.41 13.197-.206 1.043-.32 2.12-.32 3.223 0 1.103.114 2.18.32 3.223 1.5 7.58 8.18 13.297 16.2 13.297 9.125 0 16.52-7.396 16.52-16.52 0-8.152-5.91-14.908-13.674-16.26l-.23 1.255-4.34-.19zm11.48 10.08c0 3.538-2.87 6.407-6.408 6.407s-6.408-2.87-6.408-6.408c0-3.54 2.87-6.41 6.408-6.41s6.408 2.87 6.408 6.41zM342 229.896c0 3.896 3.097 7.054 6.993 7.054s7.007-3.158 7.007-7.054v-28.789c-3.998-.946-8.686-2.115-14-3.542V229.896zM69 229.484v.413c0 3.896 3.097 7.054 6.993 7.054S83 233.793 83 229.897v-.413l.13-145.96c0-6.26 1.98-12 5.414-16.44-4.587-3.71-9.17-7.512-13.75-11.414C71.165 60.477 69 66.44 69 72.9v156.582z"/><circle opacity=".6" fill="#B9E5FB" cx="195.022" cy="195.919" r="6.408"/><circle opacity=".6" fill="#B9E5FB" cx="133.022" cy="192.919" r="6.408"/><circle opacity=".6" fill="#B9E5FB" cx="227.022" cy="195.919" r="6.408"/><circle opacity=".6" fill="#B9E5FB" cx="259.022" cy="195.919" r="6.408"/><circle opacity=".6" fill="#B9E5FB" cx="292.022" cy="195.919" r="6.408"/><path opacity=".6" fill="#B9E5FB" d="M127.26 182.384l4.722-1.133.318-.912 22.84-65.63c-1.56-.982-3.122-1.977-4.687-2.98l-15.638 45.037 5.1-51.93c-1.566-1.043-3.134-2.096-4.703-3.16l-7.69 78.083-.26 2.626zM188.585 186.296l4.875-1.55.005-.155 1.576-46.505c-3.22-1.75-6.463-3.543-9.725-5.38l3.182 52.165.088 1.426zM221 186h6V154.42c-1.988-.953-3.99-1.925-6-2.914V186zM252.905 185.65l5.098-.755.017-.29.95-15.788c-2.25-.948-4.526-1.92-6.82-2.915l.725 18.964.03.784zM286.95 185.84l4.342.188.23-1.254.547-3.005c-1.79-.65-3.605-1.314-5.44-1.996l.255 4.84.064 1.225z"/></svg>