<svg xmlns="http://www.w3.org/2000/svg" width="384" height="348" viewBox="0 0 384 348"><path fill="none" stroke="#8CC63F" stroke-width="10" stroke-linecap="round" stroke-miterlimit="10" d="M208.178 221.7l95.172-40.934M225.247 259.436l115.947-49.36M201.195 147.395l-99.39 29.24M185.23 108.515L64.208 143.633"/><path fill="#fff" d="M296.674 189.16l-23.922-.74"/><g fill="none" stroke="#8CC63F" stroke-width="20" stroke-linecap="round" stroke-linejoin="round" stroke-miterlimit="10"><path d="M339.258 204.332l-38.466-26.87s-51.45-34.95-92.47 1.43l-.928 1.098c-41.02 36.38-93.66 3.58-93.66 3.58L65.1 149.6M277.97 292.073l-38.466-26.87s-50.215-36.718-30.175-87.752l-.54.54c20.04-51.035-30.12-87.383-30.12-87.383l-48.634-33.97"/></g><path opacity=".6" fill="#fff" d="M217.112 185.604c-4.33 16.67-1.19 27.28-1.19 27.28l57.044-24.294c7.62.264 15.417.456 23.384.566l-77.398 33.36s4.922 13.805 17.534 26.093l.22.212 92.443-39.078-29.228-20.538c10.89.11 22.744-.156 34.255-.156.6 0 .104-.002.156-.003l10.677 7.12s6.274 3.235 3.633 11.755c0 0-2.047 5.68-9.38 8.52-7.33 2.84-94.312 40.09-94.312 40.09l38.44 27.08s8.652 6.207 2.18 14.99c0 0-6.274 7.794-15.85 0l-33.883-23.71S194 245.383 194.5 200.215c0 0-32.594 20.246-84.666-7.292l-52.5-36.875S83 164.985 129.942 173.59l-8.737 2.705s32.258 18.943 62.46 6.71l2.597-.975c9.822 1.165 20.152 2.24 30.974 3.182"/></svg>