<svg xmlns="http://www.w3.org/2000/svg" width="256" height="324" viewBox="0 0 256 324"><path fill="#29A5DC" d="M212.938 225.515c3.696 1.205 5.552 5.295 4.064 8.85-1.422 3.4-5.223 5.127-8.72 3.975-27.608-9.1-45.962-22.057-55.75-39.27-1.866-3.277-.72-7.446 2.56-9.31 3.276-1.866 7.446-.72 9.31 2.56 8.123 14.282 24.106 25.24 48.536 33.195zm-90.61-6.494c-8.953 5.23-23.964 13.992-55.144 23.248-4.32 1.282-6.29 6.285-4.03 10.162 1.312 2.436 4.46 3.956 7.57 3.035 28.51-8.433 44.332-16.558 54.245-22.196 9.84-5.597 10.758-5.692 20.078 1.175 9.03 6.654 24.37 16.346 51.622 26.332 3.125 1.146 6.45-.26 7.884-2.648 2.41-3.715.75-8.726-3.423-10.26-32.527-11.946-46.685-23.246-53.73-28.87-9.128-7.286-12.195-7.498-25.07.02zm-2.78 32.62c-6.726 3.488-16.87 8.746-34.295 14.812-2.262.787-3.958 2.685-4.486 5.02-1.14 5.053 3.626 9.732 8.33 8.106 18.695-6.462 29.57-12.096 36.74-15.812 5.463-2.832 8.812-3.416 15.08-.017 7.933 4.3 20.443 11.076 37.9 18.13 4.934 1.996 9.967-2.394 9.033-7.59-.42-2.347-2.02-4.31-4.23-5.206-16.65-6.75-28.6-13.226-36.195-17.343-11.96-6.477-13.35-7.628-27.876-.1zm-7.323 33.787c-2.405 1.122-3.895 3.583-3.778 6.233.234 5.277 6.268 7.69 10.066 5.905 17.93-8.425 11.703-8.153 31.927.837 3.656 1.625 9.71-.578 9.996-5.888.145-2.72-1.407-5.247-3.9-6.35-26.328-11.65-19.27-12.434-44.31-.737zm24.835-150.29c1.46-3.477-.173-7.48-3.652-8.94-3.477-1.46-7.48.174-8.942 3.65-11.157 26.563-39.357 47.05-76.514 56.078-3.533.86-5.812 4.294-5.22 7.88.635 3.847 4.404 6.365 8.226 5.44 36.604-8.868 71.568-29.51 86.102-64.108zm6.822 43.988c8.67-9.912 15.573-20.9 20.512-32.66 4.965-11.817 4.11-23.724-2.407-33.53-6.813-10.252-19.146-16.62-32.186-16.62-7.366 0-14.457 2.04-20.506 5.904-6.615 4.223-11.84 10.57-15.106 18.35-6.823 16.242-24.73 29.297-49.088 36.268-3.04.87-5.124 3.676-5.07 6.84.077 4.42 4.33 7.564 8.577 6.35 28.484-8.14 49.73-24.067 58.175-44.17 4.685-11.162 13.942-15.885 23.02-15.885 15.068 0 29.64 13.015 22 31.204-16.134 38.407-53.907 63.128-96.595 73.993-1.883.48-3.478 1.725-4.403 3.433-.924 1.708-1.098 3.73-.467 5.565 1.132 3.295 4.592 5.16 7.968 4.305 20.93-5.306 40.29-13.616 56.67-24.395 11.058-7.272 20.783-15.666 28.907-24.953zM82.5 113.185c3.1-5.325 6.03-10.355 11.07-15.035 11.922-11.07 28.082-16.415 44.34-14.667 15.338 1.652 28.85 9.376 37.074 21.193 11.387 16.364 8.53 32.61 5.765 48.32-2.364 13.432-4.808 27.322 2.78 39.48 5.728 9.178 16.574 16.133 33.51 21.327 3.582 1.098 7.37-1.036 8.28-4.674.915-3.67-1.193-7.405-4.807-8.524-13.143-4.066-21.518-9.147-25.396-15.363-4.815-7.715-3.008-17.987-.916-29.88 2.94-16.71 6.6-37.504-8.004-58.49-10.483-15.065-27.55-24.895-46.82-26.97-20.19-2.174-40.276 4.473-55.098 18.237-6.53 6.062-10.278 12.496-13.582 18.172-5.203 8.938-9.585 16.44-24.392 21.33-2.35.777-4.206 2.778-4.592 5.735-.632 4.896 4.064 8.792 8.77 7.247 19.832-6.515 26.006-17.115 32.018-27.44zM60.77 95.212c1.28-1.94 2.605-3.944 4.087-6.083 16.336-23.578 45.21-35.142 77.244-30.932 30.447 4 55.445 21.42 63.685 44.372 7.305 20.348 4.417 36.785 2.096 49.994-2.003 11.406-3.734 21.256 2.323 29.16 2.46 3.21 5.962 5.69 10.772 7.55 4.014 1.553 8.402-1.12 8.89-5.372.37-3.217-1.44-6.28-4.432-7.517-2.06-.85-3.525-1.84-4.388-2.967-2.408-3.144-1.218-9.916.29-18.49 2.462-14.018 5.835-33.214-2.694-56.973-9.95-27.717-39.294-48.64-74.76-53.3-30.878-4.054-62.4 4.77-83.55 28.253-4.51 5.075-7.283 8.746-9.973 14.977-1.754 4.065-1.07 6.998 1.878 9.02 2.902 1.992 6.608 1.22 8.534-1.693z"/><g fill="#ECECEC"><path opacity=".5" d="M46.427 127.673c-2.35.777-4.206 2.778-4.592 5.735-.632 4.896 4.064 8.792 8.77 7.247 10.36-3.403 16.99-7.922 21.818-12.932-3.36-3.296-6.577-6.555-9.664-9.765-3.656 3.844-8.547 7.143-16.333 9.715zM42.855 193.838c.636 3.845 4.405 6.364 8.227 5.44 24.258-5.878 47.788-16.93 65.136-33.785-3.755-2.828-7.416-5.68-10.976-8.548-14.25 13.265-33.96 23.373-57.165 29.012-3.533.858-5.813 4.294-5.222 7.88zM152.655 199.1c9.788 17.213 28.142 30.17 55.75 39.27 3.498 1.153 7.3-.576 8.72-3.974 1.49-3.555-.366-7.645-4.063-8.85-20.317-6.616-34.772-15.317-43.742-26.27-5.248-2.76-10.368-5.618-15.366-8.556-2.277 2.106-2.9 5.57-1.3 8.38zM48.73 170.06c17.94-5.128 33.004-13.345 43.812-23.747-3.5-3.043-6.88-6.084-10.158-9.113-9.064 8.484-21.83 15.283-37.16 19.67-3.04.87-5.124 3.675-5.07 6.84.078 4.418 4.33 7.562 8.577 6.35zM140.83 182.654c-3.937-2.53-7.78-5.107-11.545-7.717C110.142 194.5 83.838 207.945 55.33 215.2c-1.883.48-3.478 1.726-4.403 3.434-.924 1.708-1.098 3.728-.467 5.565 1.132 3.294 4.592 5.16 7.968 4.303 20.93-5.305 40.29-13.616 56.67-24.394 9.653-6.348 18.288-13.552 25.73-21.456zM187.973 274.324c-.42-2.35-2.02-4.31-4.23-5.207-16.65-6.75-28.6-13.226-36.196-17.343-11.957-6.48-13.35-7.63-27.875-.1-6.727 3.486-16.872 8.744-34.296 14.81-2.262.787-3.958 2.686-4.486 5.02-1.14 5.053 3.626 9.732 8.33 8.106 18.695-6.462 29.57-12.097 36.738-15.812 5.464-2.832 8.813-3.416 15.08-.017 7.934 4.3 20.444 11.078 37.9 18.133 4.935 1.995 9.968-2.395 9.035-7.59zM112.35 285.458c-2.406 1.122-3.896 3.583-3.78 6.233.235 5.278 6.27 7.69 10.067 5.906 17.93-8.425 11.703-8.153 31.927.837 3.656 1.625 9.71-.578 9.996-5.888.145-2.72-1.407-5.247-3.9-6.35-26.328-11.65-19.27-12.434-44.31-.737zM70.847 255.497c28.512-8.433 44.333-16.558 54.245-22.196 9.84-5.595 10.76-5.69 20.08 1.177 9.03 6.654 24.37 16.347 51.62 26.332 3.126 1.145 6.452-.26 7.885-2.65 2.41-3.713.75-8.724-3.423-10.257-32.528-11.947-46.686-23.246-53.73-28.87-9.13-7.288-12.196-7.5-25.072.02-8.954 5.227-23.965 13.99-55.145 23.246-4.32 1.28-6.29 6.284-4.03 10.16 1.313 2.438 4.46 3.958 7.57 3.037z"/></g></svg>