<svg xmlns="http://www.w3.org/2000/svg" width="316" height="380" viewBox="0 0 316 380"><path fill="#F6DC21" d="M199.728 60.033v73.165c0 25.193 14.667 50.065 25.584 72.77l39.235 81.6c8.093 16.83-4.196 36.375-22.87 36.375h-137.9c-18.673 0-30.963-19.545-22.87-36.374l39.234-81.6c10.918-22.705 25.585-47.578 25.585-72.77V60.033H199.73z"/><path opacity=".6" fill="#fff" d="M218.744 216.045l34.49 69.28c7.113 14.29-3.69 30.886-20.105 30.886H111.91c-16.414 0-27.218-16.594-20.104-30.883l34.49-69.283h92.448z"/><path fill="none" stroke="#fff" stroke-width="5" stroke-linecap="round" stroke-miterlimit="10" d="M156 92.5h15M156 125.5h15M153 157.5h18M142 190.5h29"/><path fill="#F6E821" d="M207 60.5c0 3.038-2.462 5.5-5.5 5.5h-58c-3.038 0-5.5-2.462-5.5-5.5s2.462-5.5 5.5-5.5h58c3.038 0 5.5 2.462 5.5 5.5z"/><path fill="none" d="M65.75 129.455"/><path opacity=".5" fill="#fff" d="M259.46 276.483l5.087 11.085c8.093 16.83-4.196 36.376-22.87 36.376h-137.9c-18.673 0-30.963-19.545-22.87-36.374l25.765-53.392c48.504 31.527 152.787 42.305 152.787 42.305z"/></svg>