<svg xmlns="http://www.w3.org/2000/svg" width="528" height="288" viewBox="0 0 528 288"><path fill="#F6AF21" d="M64.754 51H480v164.225c0 12.58-10.318 23.775-22.898 23.775H65.322C52.743 239 42 227.805 42 215.225V51h22.754z"/><path opacity=".5" fill="#fff" d="M480.01 215.03c0 12.58-10.328 23.97-22.908 23.97H65.322C52.743 239 42 227.805 42 215.225V51h20.6s143.133 84.735 417.41 164.03z"/><path fill="#fff" d="M84 103.978c0 3.326-2.696 6.022-6.022 6.022h-9.956c-3.326 0-6.022-2.696-6.022-6.022v-8.956C62 91.696 64.696 89 68.022 89h9.956C81.304 89 84 91.696 84 95.022v8.956zM111 103.978c0 3.326-2.696 6.022-6.022 6.022h-9.956c-3.326 0-6.022-2.696-6.022-6.022v-8.956C89 91.696 91.696 89 95.022 89h9.956c3.326 0 6.022 2.696 6.022 6.022v8.956zM139 103.978c0 3.326-2.696 6.022-6.022 6.022h-9.956c-3.326 0-6.022-2.696-6.022-6.022v-8.956c0-3.326 2.696-6.022 6.022-6.022h9.956c3.326 0 6.022 2.696 6.022 6.022v8.956zM168 103.978c0 3.326-2.696 6.022-6.022 6.022h-9.956c-3.326 0-6.022-2.696-6.022-6.022v-8.956c0-3.326 2.696-6.022 6.022-6.022h9.956c3.326 0 6.022 2.696 6.022 6.022v8.956zM196 103.978c0 3.326-2.696 6.022-6.022 6.022h-9.956c-3.326 0-6.022-2.696-6.022-6.022v-8.956c0-3.326 2.696-6.022 6.022-6.022h9.956c3.326 0 6.022 2.696 6.022 6.022v8.956zM224 103.978c0 3.326-2.696 6.022-6.022 6.022h-9.956c-3.326 0-6.022-2.696-6.022-6.022v-8.956c0-3.326 2.696-6.022 6.022-6.022h9.956c3.326 0 6.022 2.696 6.022 6.022v8.956zM251 103.978c0 3.326-2.696 6.022-6.022 6.022h-9.956c-3.326 0-6.022-2.696-6.022-6.022v-8.956c0-3.326 2.696-6.022 6.022-6.022h9.956c3.326 0 6.022 2.696 6.022 6.022v8.956zM278 103.978c0 3.326-2.696 6.022-6.022 6.022h-9.956c-3.326 0-6.022-2.696-6.022-6.022v-8.956c0-3.326 2.696-6.022 6.022-6.022h9.956c3.326 0 6.022 2.696 6.022 6.022v8.956zM306 103.978c0 3.326-2.696 6.022-6.022 6.022h-9.956c-3.326 0-6.022-2.696-6.022-6.022v-8.956c0-3.326 2.696-6.022 6.022-6.022h9.956c3.326 0 6.022 2.696 6.022 6.022v8.956zM335 103.978c0 3.326-2.696 6.022-6.022 6.022h-9.956c-3.326 0-6.022-2.696-6.022-6.022v-8.956c0-3.326 2.696-6.022 6.022-6.022h9.956c3.326 0 6.022 2.696 6.022 6.022v8.956zM362 103.978c0 3.326-2.696 6.022-6.022 6.022h-9.956c-3.326 0-6.022-2.696-6.022-6.022v-8.956c0-3.326 2.696-6.022 6.022-6.022h9.956c3.326 0 6.022 2.696 6.022 6.022v8.956zM389 103.978c0 3.326-2.696 6.022-6.022 6.022h-9.956c-3.326 0-6.022-2.696-6.022-6.022v-8.956c0-3.326 2.696-6.022 6.022-6.022h9.956c3.326 0 6.022 2.696 6.022 6.022v8.956zM124 130.978c0 3.326-2.696 6.022-6.022 6.022h-9.956c-3.326 0-6.022-2.696-6.022-6.022v-8.956c0-3.326 2.696-6.022 6.022-6.022h9.956c3.326 0 6.022 2.696 6.022 6.022v8.956zM98 130.978c0 3.326-2.696 6.022-6.022 6.022H68.022c-3.326 0-6.022-2.696-6.022-6.022v-8.956c0-3.326 2.696-6.022 6.022-6.022h23.956c3.326 0 6.022 2.696 6.022 6.022v8.956zM153 130.978c0 3.326-2.696 6.022-6.022 6.022h-9.956c-3.326 0-6.022-2.696-6.022-6.022v-8.956c0-3.326 2.696-6.022 6.022-6.022h9.956c3.326 0 6.022 2.696 6.022 6.022v8.956zM180 130.978c0 3.326-2.696 6.022-6.022 6.022h-9.956c-3.326 0-6.022-2.696-6.022-6.022v-8.956c0-3.326 2.696-6.022 6.022-6.022h9.956c3.326 0 6.022 2.696 6.022 6.022v8.956zM208 130.978c0 3.326-2.696 6.022-6.022 6.022h-9.956c-3.326 0-6.022-2.696-6.022-6.022v-8.956c0-3.326 2.696-6.022 6.022-6.022h9.956c3.326 0 6.022 2.696 6.022 6.022v8.956zM237 130.978c0 3.326-2.696 6.022-6.022 6.022h-9.956c-3.326 0-6.022-2.696-6.022-6.022v-8.956c0-3.326 2.696-6.022 6.022-6.022h9.956c3.326 0 6.022 2.696 6.022 6.022v8.956zM265 130.978c0 3.326-2.696 6.022-6.022 6.022h-9.956c-3.326 0-6.022-2.696-6.022-6.022v-8.956c0-3.326 2.696-6.022 6.022-6.022h9.956c3.326 0 6.022 2.696 6.022 6.022v8.956zM293 130.978c0 3.326-2.696 6.022-6.022 6.022h-9.956c-3.326 0-6.022-2.696-6.022-6.022v-8.956c0-3.326 2.696-6.022 6.022-6.022h9.956c3.326 0 6.022 2.696 6.022 6.022v8.956zM320 130.978c0 3.326-2.696 6.022-6.022 6.022h-9.956c-3.326 0-6.022-2.696-6.022-6.022v-8.956c0-3.326 2.696-6.022 6.022-6.022h9.956c3.326 0 6.022 2.696 6.022 6.022v8.956zM349 130.978c0 3.326-2.696 6.022-6.022 6.022h-9.956c-3.326 0-6.022-2.696-6.022-6.022v-8.956c0-3.326 2.696-6.022 6.022-6.022h9.956c3.326 0 6.022 2.696 6.022 6.022v8.956zM377 130.978c0 3.326-2.696 6.022-6.022 6.022h-9.956c-3.326 0-6.022-2.696-6.022-6.022v-8.956c0-3.326 2.696-6.022 6.022-6.022h9.956c3.326 0 6.022 2.696 6.022 6.022v8.956zM404 130.978c0 3.326-2.696 6.022-6.022 6.022h-9.956c-3.326 0-6.022-2.696-6.022-6.022v-8.956c0-3.326 2.696-6.022 6.022-6.022h9.956c3.326 0 6.022 2.696 6.022 6.022v8.956zM433 130.978c0 3.326-2.696 6.022-6.022 6.022h-9.956c-3.326 0-6.022-2.696-6.022-6.022v-8.956c0-3.326 2.696-6.022 6.022-6.022h9.956c3.326 0 6.022 2.696 6.022 6.022v8.956zM463 130.978c0 3.326-2.696 6.022-6.022 6.022h-12.956c-3.326 0-6.022-2.696-6.022-6.022v-8.956c0-3.326 2.696-6.022 6.022-6.022h12.956c3.326 0 6.022 2.696 6.022 6.022v8.956zM132 157.978c0 3.326-2.696 6.022-6.022 6.022h-9.956c-3.326 0-6.022-2.696-6.022-6.022v-8.956c0-3.326 2.696-6.022 6.022-6.022h9.956c3.326 0 6.022 2.696 6.022 6.022v8.956zM104 157.978c0 3.326-2.696 6.022-6.022 6.022H68.022c-3.326 0-6.022-2.696-6.022-6.022v-8.956c0-3.326 2.696-6.022 6.022-6.022h29.956c3.326 0 6.022 2.696 6.022 6.022v8.956zM160 157.978c0 3.326-2.696 6.022-6.022 6.022h-9.956c-3.326 0-6.022-2.696-6.022-6.022v-8.956c0-3.326 2.696-6.022 6.022-6.022h9.956c3.326 0 6.022 2.696 6.022 6.022v8.956zM187 157.978c0 3.326-2.696 6.022-6.022 6.022h-9.956c-3.326 0-6.022-2.696-6.022-6.022v-8.956c0-3.326 2.696-6.022 6.022-6.022h9.956c3.326 0 6.022 2.696 6.022 6.022v8.956zM214 157.978c0 3.326-2.696 6.022-6.022 6.022h-9.956c-3.326 0-6.022-2.696-6.022-6.022v-8.956c0-3.326 2.696-6.022 6.022-6.022h9.956c3.326 0 6.022 2.696 6.022 6.022v8.956zM244 157.978c0 3.326-2.696 6.022-6.022 6.022h-9.956c-3.326 0-6.022-2.696-6.022-6.022v-8.956c0-3.326 2.696-6.022 6.022-6.022h9.956c3.326 0 6.022 2.696 6.022 6.022v8.956zM273 157.978c0 3.326-2.696 6.022-6.022 6.022h-9.956c-3.326 0-6.022-2.696-6.022-6.022v-8.956c0-3.326 2.696-6.022 6.022-6.022h9.956c3.326 0 6.022 2.696 6.022 6.022v8.956zM300 157.978c0 3.326-2.696 6.022-6.022 6.022h-9.956c-3.326 0-6.022-2.696-6.022-6.022v-8.956c0-3.326 2.696-6.022 6.022-6.022h9.956c3.326 0 6.022 2.696 6.022 6.022v8.956zM329 157.978c0 3.326-2.696 6.022-6.022 6.022h-9.956c-3.326 0-6.022-2.696-6.022-6.022v-8.956c0-3.326 2.696-6.022 6.022-6.022h9.956c3.326 0 6.022 2.696 6.022 6.022v8.956zM357 157.978c0 3.326-2.696 6.022-6.022 6.022h-9.956c-3.326 0-6.022-2.696-6.022-6.022v-8.956c0-3.326 2.696-6.022 6.022-6.022h9.956c3.326 0 6.022 2.696 6.022 6.022v8.956zM385 157.978c0 3.326-2.696 6.022-6.022 6.022h-9.956c-3.326 0-6.022-2.696-6.022-6.022v-8.956c0-3.326 2.696-6.022 6.022-6.022h9.956c3.326 0 6.022 2.696 6.022 6.022v8.956zM412 157.978c0 3.326-2.696 6.022-6.022 6.022h-9.956c-3.326 0-6.022-2.696-6.022-6.022v-8.956c0-3.326 2.696-6.022 6.022-6.022h9.956c3.326 0 6.022 2.696 6.022 6.022v8.956zM462 157.978c0 3.326-2.696 6.022-6.022 6.022h-31.956c-3.326 0-6.022-2.696-6.022-6.022v-8.956c0-3.326 2.696-6.022 6.022-6.022h31.956c3.326 0 6.022 2.696 6.022 6.022v8.956zM143 184.978c0 3.326-2.696 6.022-6.022 6.022h-9.956c-3.326 0-6.022-2.696-6.022-6.022v-8.956c0-3.326 2.696-6.022 6.022-6.022h9.956c3.326 0 6.022 2.696 6.022 6.022v8.956zM118 184.978c0 3.326-2.696 6.022-6.022 6.022H68.022c-3.326 0-6.022-2.696-6.022-6.022v-8.956c0-3.326 2.696-6.022 6.022-6.022h43.956c3.326 0 6.022 2.696 6.022 6.022v8.956zM171 184.978c0 3.326-2.696 6.022-6.022 6.022h-9.956c-3.326 0-6.022-2.696-6.022-6.022v-8.956c0-3.326 2.696-6.022 6.022-6.022h9.956c3.326 0 6.022 2.696 6.022 6.022v8.956zM200 184.978c0 3.326-2.696 6.022-6.022 6.022h-9.956c-3.326 0-6.022-2.696-6.022-6.022v-8.956c0-3.326 2.696-6.022 6.022-6.022h9.956c3.326 0 6.022 2.696 6.022 6.022v8.956zM229 184.978c0 3.326-2.696 6.022-6.022 6.022h-9.956c-3.326 0-6.022-2.696-6.022-6.022v-8.956c0-3.326 2.696-6.022 6.022-6.022h9.956c3.326 0 6.022 2.696 6.022 6.022v8.956zM84 211.978c0 3.326-2.696 6.022-6.022 6.022h-9.956c-3.326 0-6.022-2.696-6.022-6.022v-8.956c0-3.326 2.696-6.022 6.022-6.022h9.956c3.326 0 6.022 2.696 6.022 6.022v8.956zM111 211.978c0 3.326-2.696 6.022-6.022 6.022h-9.956c-3.326 0-6.022-2.696-6.022-6.022v-8.956c0-3.326 2.696-6.022 6.022-6.022h9.956c3.326 0 6.022 2.696 6.022 6.022v8.956zM138 211.978c0 3.326-2.696 6.022-6.022 6.022h-9.956c-3.326 0-6.022-2.696-6.022-6.022v-8.956c0-3.326 2.696-6.022 6.022-6.022h9.956c3.326 0 6.022 2.696 6.022 6.022v8.956zM376 211.978c0 3.326-2.696 6.022-6.022 6.022h-18.956c-3.326 0-6.022-2.696-6.022-6.022v-8.956c0-3.326 2.696-6.022 6.022-6.022h18.956c3.326 0 6.022 2.696 6.022 6.022v8.956zM172 211.978c0 3.326-2.696 6.022-6.022 6.022h-16.956c-3.326 0-6.022-2.696-6.022-6.022v-8.956c0-3.326 2.696-6.022 6.022-6.022h16.956c3.326 0 6.022 2.696 6.022 6.022v8.956zM341 211.978c0 3.326-2.696 6.022-6.022 6.022h-16.956c-3.326 0-6.022-2.696-6.022-6.022v-8.956c0-3.326 2.696-6.022 6.022-6.022h16.956c3.326 0 6.022 2.696 6.022 6.022v8.956zM304 211.978c0 3.326-2.696 6.022-6.022 6.022H185.022c-3.326 0-6.022-2.696-6.022-6.022v-8.956c0-3.326 2.696-6.022 6.022-6.022h112.956c3.326 0 6.022 2.696 6.022 6.022v8.956zM255 184.978c0 3.326-2.696 6.022-6.022 6.022h-9.956c-3.326 0-6.022-2.696-6.022-6.022v-8.956c0-3.326 2.696-6.022 6.022-6.022h9.956c3.326 0 6.022 2.696 6.022 6.022v8.956zM283 184.978c0 3.326-2.696 6.022-6.022 6.022h-9.956c-3.326 0-6.022-2.696-6.022-6.022v-8.956c0-3.326 2.696-6.022 6.022-6.022h9.956c3.326 0 6.022 2.696 6.022 6.022v8.956zM311 184.978c0 3.326-2.696 6.022-6.022 6.022h-9.956c-3.326 0-6.022-2.696-6.022-6.022v-8.956c0-3.326 2.696-6.022 6.022-6.022h9.956c3.326 0 6.022 2.696 6.022 6.022v8.956zM339 184.978c0 3.326-2.696 6.022-6.022 6.022h-9.956c-3.326 0-6.022-2.696-6.022-6.022v-8.956c0-3.326 2.696-6.022 6.022-6.022h9.956c3.326 0 6.022 2.696 6.022 6.022v8.956zM367 184.978c0 3.326-2.696 6.022-6.022 6.022h-9.956c-3.326 0-6.022-2.696-6.022-6.022v-8.956c0-3.326 2.696-6.022 6.022-6.022h9.956c3.326 0 6.022 2.696 6.022 6.022v8.956zM395 184.978c0 3.326-2.696 6.022-6.022 6.022h-9.956c-3.326 0-6.022-2.696-6.022-6.022v-8.956c0-3.326 2.696-6.022 6.022-6.022h9.956c3.326 0 6.022 2.696 6.022 6.022v8.956zM462 184.978c0 3.326-2.696 6.022-6.022 6.022h-51.956c-3.326 0-6.022-2.696-6.022-6.022v-8.956c0-3.326 2.696-6.022 6.022-6.022h51.956c3.326 0 6.022 2.696 6.022 6.022v8.956zM418 103.978c0 3.326-2.696 6.022-6.022 6.022h-9.956c-3.326 0-6.022-2.696-6.022-6.022v-8.956c0-3.326 2.696-6.022 6.022-6.022h9.956c3.326 0 6.022 2.696 6.022 6.022v8.956zM463 103.978c0 3.326-2.696 6.022-6.022 6.022h-26.956c-3.326 0-6.022-2.696-6.022-6.022v-8.956c0-3.326 2.696-6.022 6.022-6.022h26.956c3.326 0 6.022 2.696 6.022 6.022v8.956zM85 78.307C85 81.632 82.517 85 79.19 85H67.148C63.82 85 62 81.632 62 78.307v-4.015C62 70.966 63.82 70 67.147 70H79.19c3.327 0 5.81 1.97 5.81 5.295v3.012zM115 78.307c0 3.326-3.317 6.693-6.643 6.693H96.313C92.987 85 90 81.632 90 78.307v-4.015C90 70.966 92.987 70 96.313 70h12.044c3.326 0 6.643 1.97 6.643 5.295v3.012zM143 78.307c0 3.326-2.15 6.693-5.477 6.693H125.48c-3.327 0-7.48-3.368-7.48-6.693v-4.015c0-3.326 4.153-4.292 7.48-4.292h12.043c3.326 0 5.477 1.97 5.477 5.295v3.012zM172 78.307c0 3.326-1.986 6.693-5.312 6.693h-12.044c-3.326 0-5.644-3.368-5.644-6.693v-4.015c0-3.326 2.318-4.292 5.644-4.292h12.044c3.326 0 5.312 1.97 5.312 5.295v3.012zM202 78.307c0 3.326-1.787 6.693-5.113 6.693h-12.044c-3.326 0-5.843-3.368-5.843-6.693v-4.015c0-3.326 2.517-4.292 5.843-4.292h12.044c3.326 0 5.113 1.97 5.113 5.295v3.012zM231 78.307c0 3.326-1.62 6.693-4.947 6.693H214.01c-3.327 0-6.01-3.368-6.01-6.693v-4.015c0-3.326 2.683-4.292 6.01-4.292h12.043c3.326 0 4.947 1.97 4.947 5.295v3.012zM261 78.307c0 3.326-2.455 6.693-5.78 6.693h-12.045C239.85 85 236 81.632 236 78.307v-4.015c0-3.326 3.85-4.292 7.175-4.292h12.044c3.325 0 5.78 1.97 5.78 5.295v3.012zM291 78.307c0 3.326-3.29 6.693-6.616 6.693H272.34c-3.326 0-5.34-3.368-5.34-6.693v-4.015c0-3.326 2.014-4.292 5.34-4.292h12.044c3.326 0 6.616 1.97 6.616 5.295v3.012zM319 78.307c0 3.326-3.128 6.693-6.454 6.693h-12.044c-3.326 0-5.502-3.368-5.502-6.693v-4.015c0-3.326 2.176-4.292 5.502-4.292h12.044c3.326 0 6.454 1.97 6.454 5.295v3.012zM347 78.307c0 3.326-1.962 6.693-5.288 6.693h-12.044c-3.326 0-7.668-3.368-7.668-6.693v-4.015c0-3.326 4.342-4.292 7.668-4.292h12.044c3.326 0 5.288 1.97 5.288 5.295v3.012zM377 78.307c0 3.326-2.796 6.693-6.122 6.693h-12.044c-3.326 0-5.833-3.368-5.833-6.693v-4.015c0-3.326 2.51-4.292 5.834-4.292h12.044c3.326 0 6.122 1.97 6.122 5.295v3.012zM407 78.307c0 3.326-3.63 6.693-6.956 6.693H388c-3.326 0-6-3.368-6-6.693v-4.015c0-3.326 2.674-4.292 6-4.292h12.044c3.326 0 6.956 1.97 6.956 5.295v3.012zM411 212.624c0 3.326-2.495 6.376-5.82 6.376H395.14c-3.326 0-6.142-3.05-6.142-6.376v-4.015c0-3.327 2.816-5.61 6.142-5.61h10.037c3.325 0 5.82 3.287 5.82 6.613v3.01zM462 212.624c0 3.326-1.303 6.376-4.63 6.376h-10.036c-3.326 0-6.334-3.05-6.334-6.376v-4.015c0-3.327 3.008-5.61 6.334-5.61h10.037c3.327 0 4.63 3.287 4.63 6.613v3.01zM437 212.624c0 3.326-2.4 6.376-5.725 6.376h-10.037c-3.326 0-5.238-3.05-5.238-6.376v-11.04c0-3.327 1.912-4.584 5.238-4.584h10.037c3.326 0 5.725 2.26 5.725 5.587v10.037zM433 78.307c0 3.326-1.468 6.693-4.794 6.693h-12.044c-3.326 0-5.16-3.368-5.16-6.693v-4.015c0-3.326 1.834-4.292 5.16-4.292h12.044c3.326 0 4.794 1.97 4.794 5.295v3.012zM462 78.307c0 3.326-1.303 6.693-4.63 6.693h-12.043C442 85 439 81.632 439 78.307v-4.015c0-3.326 3-4.292 6.327-4.292h12.044c3.327 0 4.63 1.97 4.63 5.295v3.012z"/></svg>