<svg xmlns="http://www.w3.org/2000/svg" width="368" height="316" viewBox="0 0 368 316"><path fill="#666" d="M301 209.3c0 3.363-3.045 5.7-6.517 5.7H74.286c-3.47 0-6.286-2.337-6.286-5.7V66.137C68 62.774 70.814 60 74.286 60h220.198c3.47 0 6.517 2.774 6.517 6.138v143.16z"/><path fill="#C6C6C6" d="M313.125 254.985c1 2.5.043 5.09-.875 6.312-1.125 1.5-3.098 2.125-4.875 2.125l-247.09-.375c-1.847 0-4.01-.674-5.16-1.812-1.01-1-1.562-3.438-.562-5.562L66.688 220.9c1.562-3.813 3.127-5.9 6.598-5.9h220.198c3.47 0 5.97 2.73 6.895 5.927l12.745 34.058z"/><path fill="#939393" d="M296.85 246.93c.847 2.12.035 4.318-.743 5.356-.954 1.273-2.63 1.803-4.136 1.803l-217.63.68c-1.57 0-3.404-.57-4.38-1.537-.857-.85-1.325-2.916-.476-4.72l7.287-20.505c1.327-3.235 2.654-5.008 5.6-5.008h201.816c2.945 0 5.066 2.32 5.85 5.032l6.813 18.898z"/><path fill="#E0E0E0" d="M79 70h213v133H79z"/><path opacity=".5" fill="#939393" d="M300.984 209.422c.063-7.797 0-28.274 0-28.274S185.532 161 80.667 60H75s-6-.953-7 5.88v143.167s-.444 5.33 5.642 5.943c.372.038.77.057 1.19.057 0 0-5.166-1.333-7.832 5l-12.667 36s-2.333 6.667 5.667 7l248.333.333s2.73.042 4.322-2.685c.793-1.356 1.376-3.118.5-5.743-2.332-7-13.49-35.906-13.49-35.906s-2.04-3.938-5.87-3.984c0 0 3.204.22 5.477-1.822.906-.812 1.666-2.115 1.712-3.818z"/></svg>