<svg xmlns="http://www.w3.org/2000/svg" width="396" height="336" viewBox="0 0 396 336"><path fill="none" stroke="#000" stroke-miterlimit="10" d="M330.344 148.05M197.663 176.053M63.322 227.688"/><path fill="#E0E0E0" d="M95.445 187l-36.543 35.97 6.482 16.975 65.434 27.43 154.424-3.952 41.878-19.643 9.294-20.802L299.872 187z"/><path fill="#ADADAD" d="M300.397 167.65l-.525 18.986c0 3.92-1.516 7.855-4.337 11.425C282.857 214.11 243.82 226 197.63 226h.058c-46.19 0-85.227-11.89-97.906-27.94-2.82-3.57-4.337-7.51-4.337-11.432l-.525-18.983 205.477.005z"/><path fill="#939393" d="M197.16 261c-70.917 0-129.47-16.595-138.306-38.164L60.5 254.21C78.95 274.256 133.158 289 197.16 289h.916c64.002 0 118.21-14.71 136.657-34.755l1.647-31.315C327.545 244.5 268.992 261 198.075 261h-.916zM81.717 135.294l5.67 23.99c1.106 4.436 4.478 6.417 4.478 6.417 18.362 11.31 58.3 19.3 104.612 19.3h1.638c46.31 0 86.25-7.99 104.612-19.298 0 0 3.372-1.932 4.48-6.368l5.955-21.87-231.445-2.17z"/><path fill="none" stroke="#000" stroke-miterlimit="10" d="M70.306 135.51"/><path fill="#ADADAD" d="M80.933 80l.738 54.908C81.67 147.74 133.397 158 197.2 158h.914c63.806 0 115.53-10.258 115.53-23.092l.74-54.908H80.933z"/><path fill="none" stroke="#000" stroke-miterlimit="10" d="M91.762 76.834"/><path fill="#E0E0E0" d="M194.726 105.45c-64.213.126-113.764-11.233-113.792-25.566S130.307 53 194.52 53h6.277c64.213 0 113.615 12.55 113.587 26.884-.028 14.333-49.58 25.753-113.792 25.63l-5.866-.063z"/><path fill="#C6C6C6" d="M308.082 75.815c-.024 12.17-47.846 21.89-109.062 21.77s-112.64-10.03-112.618-22.2S138.7 52.61 199.916 52.73c61.215.12 108.19 10.914 108.166 23.085z"/><path opacity=".5" fill="#939393" d="M81.037 81.63l.732 47.908s-.17 4.21.504 7.41l5.053 21.562s1.684 6.4 7.58 9.096l.505 19.37-36.552 35.88 1.684 31.498s25.266 33.352 138.29 34.868c0 0 94.76.217 135.838-34.834 0 0-122.282-21.165-253.635-172.758z"/></svg>