<svg xmlns="http://www.w3.org/2000/svg" width="249" height="309" viewBox="0 0 249 309"><path fill="#507FA2" d="M208 277.046h2v4h-2z"/><path opacity=".5" fill="#fff" d="M205.087 278.472M206.19 278.472"/><path fill="#6FAFDE" d="M209.564 278.472c-1.268.02-2.026-.232-2.026-.232v-1.886s-.455-.228-.948-.72c-.84-.842-.826-2.164-.826-2.164v-10.488c-.887-.943-1.375-2.22-1.375-2.22-.382-.82-.4-2.155-.4-2.155v-12.423l.01-.165c-.767-.1-.897-.13-1.784-.262V92.825s2.723 3.55 6.813 3.55h-.033c4.09 0 6.813 1.458 6.813 1.458V245.76c-.887.132-1.017.162-1.783.26l.01.166v12.423s-.02 1.335-.4 2.154c0 0-.488 1.276-1.375 2.22v10.488s.015 1.322-.826 2.163c-.493.493-.948.72-.948.72v1.887s-.758.253-2.026.232h1.102zM40 37h143v241H40z"/><path fill="none" stroke="#fff" stroke-miterlimit="10" d="M209.758 110.57M209.758 109.13"/><path opacity=".5" fill="#fff" d="M207.994 281.07l-.004-2.705c-.604-.07-.457-.11-.457-.11v-1.885s-.455-.228-.948-.72c-.84-.842-.826-2.164-.826-2.164v-10.488c-.888-.943-1.376-2.22-1.376-2.22-.38-.82-.4-2.155-.4-2.155V246.2l.01-.165c-.767-.098-.896-.13-1.783-.26V225.837c7.108 7.108 13.595 10.398 13.595 10.398V245.775c-.887.132-1.017.162-1.783.26l.01.165v12.423s-.02 1.336-.4 2.155c0 0-.488 1.276-1.375 2.22v10.488s.015 1.322-.826 2.163c-.492.492-.947.72-.947.72v1.886s.11.04-.453.108l-.004 2.714-2.032-.01z"/><path fill="#fff" d="M64 112h16v17H64zM64 139h16v16H64zM64 164h16v18H64zM64 190h16v18H64zM64 217h16v16H64zM64 243h16v17H64z"/><path fill="none" stroke="#fff" stroke-miterlimit="10" d="M89 119.5h68M89 146.5h68"/><path fill="#fff" d="M64 57h16v17H64zM64 84h16v16H64z"/><path fill="none" stroke="#fff" stroke-miterlimit="10" d="M89 64.5h68M89 91.5h68M89 172.5h68M89 199.5h68M89 225.5h68M89 251.5h68"/><path opacity=".5" fill="#fff" d="M40 278h143v-66.022C101 149.745 40.165 81.78 40.165 81.78L40 278z"/><path fill="#6FAFDE" d="M216.328 39.39s2.88 1.994 3.99 4.653c0 0 1.01 23.27-3.99 50.53V39.39z"/><path fill="#507FA2" d="M216.527 99.483V37.908c-.887-.57-5.132-.854-7.796-.854-2.715 0-5.008.334-7.306.926l.118.145.032 61.373.022.18c2.3-.59 4.448-.918 7.165-.918 2.665 0 5.993.293 7.767.863v-.14z"/></svg>