<svg xmlns="http://www.w3.org/2000/svg" width="396" height="400" viewBox="0 0 396 400"><path fill="#4D4D4D" d="M207.438 301.537c-.01 3.253 2.62 5.897 5.874 5.906 3.253.01 5.897-2.62 5.906-5.874l-.506-168.21c.01-3.254-1.608-5.696-4.86-5.705-3.254-.01-4.392 2.22-4.4 5.472l-2.014 168.41z"/><path fill="#ADADAD" d="M282.458 171.546l60.653 15.187c3.084-4.98 5.505-10.603 7.115-17.033 1.68-6.712 2.13-13.247 1.613-19.128l-60.045-15.034-9.335 36.008z"/><path fill="#808080" d="M261.576 122.22l31.178 7.807c.287 6.782-.636 15.224-2.734 23.6-2.098 8.377-5.036 15.676-8.636 22.124l-31.854-7.975 12.046-45.555z"/><path fill="none" stroke="#EB5A24" stroke-miterlimit="10" d="M201.027 162.063"/><ellipse transform="matrix(-.97 -.243 .243 -.97 259.422 267.425)" fill="#4D4D4D" cx="146.196" cy="117.72" rx="2.637" ry="27.533"/><path fill="#666" d="M125.025 139.477c.746-7.163 2.427-16.4 4.857-26.102 2.43-9.702 5.15-18.046 7.868-24.715L77.293 73.52c-4.385 6.253-8.186 14.643-10.615 24.345-2.43 9.702-3.03 18.893-2.11 26.474l60.457 15.137z"/><ellipse transform="matrix(-.97 -.243 .243 -.97 369.649 309.926)" fill="#4D4D4D" cx="203.93" cy="132.176" rx="2.637" ry="27.533"/><path fill="#666" d="M250.507 168.978l-111.515-27.922c-.997-7.28-.576-15.75 1.695-24.82 2.27-9.07 5.967-17.04 10.2-22.69l111.516 27.922 1.14.285c-.986 7.422-2.565 15.614-4.645 23.922-2.092 8.356-4.553 16.275-7.267 23.585l-1.123-.282z"/><path fill="#4D4D4D" d="M152.718 90.99c-3.517 6.925-6.602 15.047-9.04 24.785-2.59 10.343-3.913 20.362-3.998 28.65l-14.955-3.746c.037-8.3 1.293-18.18 3.92-28.67 2.355-9.41 5.49-18.01 8.87-24.82l15.203 3.8z"/><path fill="none" stroke="#EB5A24" stroke-miterlimit="10" d="M260.543 162.063"/><path fill="#4D4D4D" d="M210.452 105.447c-3.517 6.924-6.602 15.046-9.04 24.784-2.59 10.344-3.913 20.363-3.998 28.65l-19.165-4.8c.036-8.298 1.292-18.18 3.918-28.668 2.356-9.41 5.49-18.01 8.87-24.82l19.414 4.855zM237.124 347.55c.496 3.216 3.504 5.42 6.72 4.924 3.214-.496 5.418-3.504 4.922-6.72l-28.35-183.813c-.496-3.214-3.504-5.418-6.72-4.922-3.214.496-5.418 3.504-4.922 6.72l28.35 183.813zM170.79 341.548c-.654 3.186 1.397 6.3 4.583 6.955 3.186.655 6.3-1.396 6.955-4.582l37.465-182.174c.655-3.186-1.396-6.3-4.582-6.955-3.185-.654-6.3 1.397-6.954 4.583L170.79 341.548z"/><g opacity=".5" fill="#808080"><path d="M219.002 230.052l.215 71.517c-.01 3.252-2.653 5.88-5.906 5.872-3.252-.01-5.882-2.653-5.873-5.906l1.01-84.63 4.873-23.688 5.682 36.834zM283.444 171.793c1.6-3.263 3.036-6.735 4.294-10.437 28.897 6.576 51.625 10.95 61.22 12.732-1.52 4.64-3.487 8.833-5.847 12.645l-59.666-14.94zM281.384 175.75l-29.434-7.37c1.678-4.585 3.257-9.404 4.708-14.416 10.884 2.705 21.332 5.174 31.08 7.392-1.26 3.702-2.696 7.174-4.295 10.437-.662 1.35-1.343 2.676-2.06 3.958zM141.46 141.674c-.738 1.627-1.35 2.596-1.78 2.74.01-1.03.04-2.084.09-3.163l1.69.424zM139.51 144.43c-.05-.013-.093-.042-.134-.082l.288.072c-.054.016-.107.02-.155.01zM64.57 124.34c-.922-7.58-.32-16.772 2.108-26.475 1.338-5.343 3.102-10.27 5.14-14.678 14.18 10.905 33.92 21.11 56.44 30.462-2.23 9.354-3.362 18.17-3.505 25.758l-60.184-15.07zM197.243 158.884c-.048-.012-.092-.04-.133-.08l.288.07c-.055.018-.107.022-.155.01zM199.194 156.13c-.738 1.627-1.35 2.596-1.78 2.74.01-1.03.04-2.084.09-3.163l1.69.423zM141.46 141.674l-1.69-.423c.298-6.58 1.31-14.056 3.043-21.812 12.13 4.626 24.84 9.016 37.755 13.15-1.287 6.536-2.028 12.73-2.25 18.315l-36.858-9.23zM251.632 169.26l-1.125-.282-30.2-7.562c-.098-.396-.234-.774-.405-1.13-.12-2.628-1.997-4.942-4.69-5.496-2.872-.59-5.678 1.02-6.686 3.676l-9.333-2.337-1.69-.424c.24-5.277.943-11.13 2.102-17.24 19.4 5.78 38.833 10.97 57.053 15.497-1.45 5.013-3.03 9.83-4.708 14.417-.106.293-.21.59-.318.88zM139.77 141.25c-.05 1.08-.08 2.135-.09 3.163v.01l-.015-.003-.288-.072-14.652-3.67c.002-.413.02-.848.03-1.27.142-7.59 1.274-16.404 3.503-25.76 4.738 1.97 9.598 3.9 14.556 5.79-1.734 7.756-2.746 15.23-3.044 21.813zM197.503 155.707c-.05 1.08-.08 2.134-.09 3.162v.01l-.015-.004-.288-.072-18.86-4.723c.004-1.034.028-2.094.07-3.177.22-5.585.962-11.78 2.25-18.314 6.31 2.02 12.67 3.98 19.036 5.876-1.16 6.11-1.864 11.964-2.103 17.24zM219.793 161.746c.1-.492.13-.98.11-1.46.17.356.306.734.404 1.13.043.172.08.347.108.525l28.35 183.815c.496 3.215-1.708 6.223-4.923 6.72-3.215.495-6.223-1.71-6.72-4.924l-18.12-117.498-5.682-36.834 6.473-31.472zM215.21 154.79c2.696.555 4.572 2.87 4.692 5.497.022.48-.008.968-.11 1.46l-6.47 31.472-4.873 23.688-26.122 127.013c-.655 3.187-3.77 5.24-6.955 4.583s-5.238-3.77-4.583-6.955l37.465-182.175c.065-.315.16-.615.27-.906 1.008-2.655 3.815-4.267 6.686-3.676z"/></g></svg>