<?xml version="1.0" encoding="utf-8"?>
<!-- Generator: Adobe Illustrator 17.0.2, SVG Export Plug-In . SVG Version: 6.00 Build 0)  -->
<!DOCTYPE svg PUBLIC "-//W3C//DTD SVG 1.1//EN" "http://www.w3.org/Graphics/SVG/1.1/DTD/svg11.dtd">
<svg version="1.1" id="Layer_1" xmlns="http://www.w3.org/2000/svg" xmlns:xlink="http://www.w3.org/1999/xlink" x="0px" y="0px"
	 width="324px" height="340px" viewBox="0 0 324 340" enable-background="new 0 0 324 340" xml:space="preserve">
<path fill="#0071B6" d="M262,273.57c0,14.597-11.833,26.43-26.43,26.43H99.43C84.833,300,73,288.167,73,273.57V71.43
	C73,56.833,84.833,45,99.43,45H235.57C250.167,45,262,56.833,262,71.43V273.57z"/>
<rect x="102" y="75" fill="#FFFFFF" width="134" height="55"/>
<circle fill="#FFFFFF" cx="114.636" cy="159.199" r="12.339"/>
<circle fill="#FFFFFF" cx="114.636" cy="193.895" r="12.339"/>
<circle fill="#FFFFFF" cx="114.636" cy="228.463" r="12.339"/>
<circle fill="#FFFFFF" cx="114.636" cy="263.16" r="12.339"/>
<circle fill="#FFFFFF" cx="151.535" cy="159.199" r="12.339"/>
<circle fill="#FFFFFF" cx="151.535" cy="193.895" r="12.339"/>
<circle fill="#FFFFFF" cx="151.535" cy="228.463" r="12.339"/>
<circle fill="#FFFFFF" cx="151.535" cy="263.16" r="12.339"/>
<circle fill="#FFFFFF" cx="186.231" cy="159.199" r="12.339"/>
<circle fill="#FFFFFF" cx="186.231" cy="193.895" r="12.339"/>
<circle fill="#FFFFFF" cx="186.231" cy="228.463" r="12.339"/>
<circle fill="#FFFFFF" cx="186.231" cy="263.16" r="12.339"/>
<circle fill="#FFFFFF" cx="223.13" cy="159.199" r="12.339"/>
<circle fill="#FFFFFF" cx="223.13" cy="193.895" r="12.339"/>
<circle fill="#FFFFFF" cx="223.13" cy="228.463" r="12.339"/>
<circle fill="#FFFFFF" cx="223.13" cy="263.16" r="12.339"/>
<path opacity="0.5" fill="#ECECEC" d="M262,233.839v39.57C262,288.006,250.167,300,235.57,300H99.43
	C84.833,300,73,288.006,73,273.409V160.191C73,160.191,127.5,215.057,262,233.839z"/>
<text transform="matrix(1 0 0 1 126.0977 113.03)" fill="#0071B6" font-family="'SourceSansPro-Regular'" font-size="36" letter-spacing="3">123.4</text>
</svg>
