<?xml version="1.0" encoding="utf-8"?>
<!-- Generator: Adobe Illustrator 17.0.2, SVG Export Plug-In . SVG Version: 6.00 Build 0)  -->
<!DOCTYPE svg PUBLIC "-//W3C//DTD SVG 1.1//EN" "http://www.w3.org/Graphics/SVG/1.1/DTD/svg11.dtd">
<svg version="1.1" id="Layer_1" xmlns="http://www.w3.org/2000/svg" xmlns:xlink="http://www.w3.org/1999/xlink" x="0px" y="0px"
	 width="432px" height="368px" viewBox="0 0 432 368" enable-background="new 0 0 432 368" xml:space="preserve">
<polygon fill="#939393" points="183.91,278.105 177.952,324 252.69,324 246.111,278.169 "/>
<path fill="#939393" d="M268,320.648c0,2.403-1.948,4.352-4.352,4.352h-96.297c-2.403,0-4.352-1.948-4.352-4.352v-0.297
	c0-2.403,1.948-4.352,4.352-4.352h96.297c2.403,0,4.352,1.948,4.352,4.352V320.648z"/>
<path fill="#666666" d="M386,269.784c0,5.09-4.126,9.216-9.216,9.216H54.215c-5.09,0-9.215-4.126-9.215-9.216V53.215
	C45,48.126,49.126,44,54.215,44h322.569c5.09,0,9.216,4.126,9.216,9.215V269.784z"/>
<rect x="60" y="60" fill="#E0E0E0" width="312" height="173"/>
<path opacity="0.5" fill="#939393" d="M184,279H55c0,0-4.505,0.243-7.25-3.001c-2.41-2.848-2.75-7.105-2.75-7.105V55.047
	c0,0-0.006-4.317,1.877-6.858c0,0,2.353-3.189,6.296-3.189h10.286C63.459,45,178,192.253,385,259.651v8.396
	c0,0,0.528,4.893-1.926,7.565c-2.417,2.632-4.569,3.388-6.803,3.388H246l5.475,37H263c0,0,4.763-0.107,5.047,4.872
	c0,0,0.356,4.128-4.623,5.128H167c0,0-4.006,0.33-4.22-4.294c0,0-0.285-4.706,3.983-4.706H179L184,279z"/>
</svg>
