<?xml version="1.0" encoding="utf-8"?>
<!-- Generator: Adobe Illustrator 18.1.1, SVG Export Plug-In . SVG Version: 6.00 Build 0)  -->
<!DOCTYPE svg PUBLIC "-//W3C//DTD SVG 1.1//EN" "http://www.w3.org/Graphics/SVG/1.1/DTD/svg11.dtd">
<svg version="1.1" id="compass" xmlns="http://www.w3.org/2000/svg" xmlns:xlink="http://www.w3.org/1999/xlink" x="0px" y="0px"
	 viewBox="-196 225.5 373.5 574.5" enable-background="new -196 225.5 373.5 574.5" xml:space="preserve">
<polygon fill="#808080" points="131,730.8 126.5,764.2 108.3,736 94.8,677.5 117.5,672.3 "/>
<polygon fill="#B3B3B3" points="109,737 126.6,764.6 130.9,732.2 125.4,737.5 120.1,734.5 116.7,738.6 "/>
<path fill="none" stroke="#000000" stroke-miterlimit="10" d="M123,758.9"/>
<polygon fill="#333333" points="120.8,755.6 126.6,764.7 128,754.4 "/>
<path fill="#4D4D4D" d="M4.5,368.7c0,5.5-4.5,10-10,10h-8.7c-5.5,0-10-4.5-10-10v-83.9c0-5.5,4.5-10,10-10h8.7c5.5,0,10,4.5,10,10
	V368.7z"/>
<path fill="#4D4D4D" d="M-36.5,503.6l-8.6,13l-9.5-2c-13.2,26-28,123.8-28,123.8c-1.5,7.5-5.8,9.2-5.8,9.2l-14.8,93.5l-13.2,21.5
	l-5.5-26.5l9-92.2c-2.9-2.9-2.5-9.2-2.5-9.2c11.2-101.2,30.8-161.8,30.8-161.8s16-41.8,30.6-50.5c0,0,2.7,38,35.3,42.7
	c0,0-7.2,16.7-15.2,39.7"/>
<path fill="none" stroke="#000000" stroke-miterlimit="10" d="M62.5,585.1"/>
<path fill="#4D4D4D" d="M125.2,669c1.2,5.4-2.3,10.7-7.7,11.9l-20.2,4.4c-5.4,1.2-10.7-2.3-11.9-7.7l-20.6-95.5
	c-1.2-5.4,2.3-10.7,7.7-11.9l20.2-4.4c5.4-1.2,10.7,2.3,11.9,7.7L125.2,669z"/>
<path fill="none" stroke="#000000" stroke-miterlimit="10" d="M146.8,425.7"/>
<path fill="#333333" d="M100.7,568.1C85,478.4,35.9,397.3,35.9,397.3c-19.7-37-46.2-33.5-46.2-33.5c-35.2,0-42.2,28.5-42.2,28.5
	s-3.2,13.5-12,14.5c-11.4,1.3-22-21-22-21c-4.5-8.5-12.8-6.2-12.8-6.2c-14.5,5-7,44.2-7,44.2c9.7,50.5,44,68.4,44,68.4
	c46,27.9,84.7,10.8,84.7,10.8c7.5-3,12.5-0.8,12.5-0.8c6.8,2.5,9.2,10,9.2,10s15,47.2,22.5,65s22.8,12.8,22.8,12.8
	C105.7,585.6,100.7,568.1,100.7,568.1z M-17.3,478.9c0,0-2.5,6.5-9.8,4s-38.8-10.8-53.8-55c0,0-2.2-9.5,3.8-11.8s9.2,7.2,9.2,7.2
	s7.8,34.2,43.5,45.8C-24.3,469.1-14.8,471.4-17.3,478.9z"/>
<path fill="none" stroke="#000000" stroke-miterlimit="10" d="M-56,374.6"/>
<path fill="#B3B3B3" d="M-33.3,377.1c0,0,24-16,47,1.1c0,0,15.9,9.1,50.6,89.4c11.3,26.1,19.5,56.1,30,98.6c0,0,2.3,9.2-6.7,12.5
	c0,0-12.4,4-16.1-7.7s-13.7-40.5-13.7-40.5s-10.6-47.1-42.1-59.1c0,0-9.1-3.3-20-5.9c-10.6-2.6-39.8-14.6-44.4-46.6
	C-52.9,390.4-33.3,377.1-33.3,377.1z"/>
<circle fill="#333333" cx="-10.7" cy="410" r="16"/>
<path fill="#808080" d="M-22.5,431.6c0,0,9.8,15.2,28,16.5c0,0,7.8,1,7,8.2s-9,5.8-9,5.8s-22-0.8-37.8-23.8c0,0-3.2-6.5,1.8-9.8
	S-22.5,431.6-22.5,431.6z"/>
<circle fill="#333333" cx="-8.2" cy="451.9" r="6.4"/>
<path fill="#B3B3B3" d="M-44.1,503l5.9-6.6l1.5,8.8l0,0l-4,13.9c-0.2,0.7-1,1-1.9,0.8l-4.3-1.2c-0.9-0.2-1.4-1-1.2-1.7L-44.1,503
	L-44.1,503z"/>
<line fill="none" stroke="#B3B3B3" stroke-linecap="round" stroke-linejoin="round" stroke-miterlimit="10" x1="-38.5" y1="497.2" x2="-35.9" y2="489"/>
<line fill="none" stroke="#B3B3B3" stroke-linecap="round" stroke-linejoin="round" stroke-miterlimit="10" x1="-19" y1="502.2" x2="-18.3" y2="493.6"/>
<line fill="none" stroke="#B3B3B3" stroke-linecap="round" stroke-linejoin="round" stroke-miterlimit="10" x1="-1" y1="502.6" x2="-1.8" y2="494.1"/>
<line fill="none" stroke="#B3B3B3" stroke-linecap="round" stroke-linejoin="round" stroke-miterlimit="10" x1="17.2" y1="500.2" x2="15" y2="491.9"/>
<line fill="none" stroke="#B3B3B3" stroke-linecap="round" stroke-linejoin="round" stroke-miterlimit="10" x1="34.8" y1="493.9" x2="30.5" y2="486.5"/>
<line fill="none" stroke="#B3B3B3" stroke-linecap="round" stroke-linejoin="round" stroke-miterlimit="10" x1="-55.7" y1="489.8" x2="-52.1" y2="482"/>
<line fill="none" stroke="#B3B3B3" stroke-linecap="round" stroke-linejoin="round" stroke-miterlimit="10" x1="-102.3" y1="414.1" x2="-93.7" y2="413.2"/>
<line fill="none" stroke="#B3B3B3" stroke-linecap="round" stroke-linejoin="round" stroke-miterlimit="10" x1="-99.3" y1="432.6" x2="-90.8" y2="430.7"/>
<line fill="none" stroke="#B3B3B3" stroke-linecap="round" stroke-linejoin="round" stroke-miterlimit="10" x1="-92.2" y1="450.7" x2="-84.6" y2="446.5"/>
<line fill="none" stroke="#B3B3B3" stroke-linecap="round" stroke-linejoin="round" stroke-miterlimit="10" x1="-82.7" y1="466.3" x2="-75.9" y2="461"/>
<line fill="none" stroke="#B3B3B3" stroke-linecap="round" stroke-linejoin="round" stroke-miterlimit="10" x1="-70.3" y1="479.1" x2="-64.8" y2="472.4"/>
<line fill="none" stroke="#B3B3B3" stroke-linecap="round" stroke-linejoin="round" stroke-miterlimit="10" x1="-102.4" y1="395.4" x2="-93.8" y2="395.5"/>
<polygon fill="#3B3B3B" points="120.8,754.8 120.8,754.8 126.6,763.8 128,753.6 127.9,753.6 "/>
<g>
	<path opacity="0" fill="#FFFFFF" enable-background="new    " d="M97.3,685.2c-0.2,0-0.5,0.1-0.7,0.1l11.7,50.6l2.5,3.8l-1.8-2.8
		l7.6,1.6l3.4-4.1l5.3,3l5.4-5.3l0.2-1.4l-11.7-50.5c-0.6,0.2-1.2,0.4-1.8,0.6L97.3,685.2z"/>
	<polygon opacity="0.5" fill="#FFFFFF" enable-background="new    " points="120.1,734.5 116.7,738.7 109.1,737.1 110.8,739.8 
		120.9,755.6 128,754.5 130.9,732.2 130.9,732.2 125.5,737.5 	"/>
	<path opacity="8.000000e-02" fill="#FFFFFF" enable-background="new    " d="M-66.7,554.1c-8.8,37.5-15.8,84.4-15.8,84.4
		c-1.5,7.5-5.8,9.2-5.8,9.2l-14.7,93.5l-13.2,21.5l-5.5-26.5l9-92.2c-2.9-2.9-2.5-9.2-2.5-9.2c4.3-38.8,9.8-71.5,15-97.2
		C-86,546.6-86.6,547.1-66.7,554.1z"/>
	<path opacity="8.000000e-02" fill="#FFFFFF" enable-background="new    " d="M68.9,600.5l16.6,77.1c1.1,5.2,6,8.5,11.2,7.8
		c0.2,0,0.5-0.1,0.7-0.1l20.2-4.4c0.6-0.1,1.2-0.3,1.8-0.6c4.3-1.8,6.9-6.5,5.9-11.3l-12.8-59.5C112.4,609.5,95.2,608,68.9,600.5z"
		/>
</g>
</svg>
