<?xml version="1.0" encoding="utf-8"?>
<!-- Generator: Adobe Illustrator 17.0.2, SVG Export Plug-In . SVG Version: 6.00 Build 0)  -->
<!DOCTYPE svg PUBLIC "-//W3C//DTD SVG 1.1//EN" "http://www.w3.org/Graphics/SVG/1.1/DTD/svg11.dtd">
<svg version="1.1" id="Layer_1" xmlns="http://www.w3.org/2000/svg" xmlns:xlink="http://www.w3.org/1999/xlink" x="0px" y="0px"
	 width="384px" height="348px" viewBox="0 0 384 348" enable-background="new 0 0 384 348" xml:space="preserve">
<line fill="none" stroke="#8CC63F" stroke-width="10" stroke-linecap="round" stroke-miterlimit="10" x1="208.178" y1="221.7" x2="303.35" y2="180.766"/>
<line fill="none" stroke="#8CC63F" stroke-width="10" stroke-linecap="round" stroke-miterlimit="10" x1="225.247" y1="259.436" x2="341.194" y2="210.076"/>
<line fill="none" stroke="#8CC63F" stroke-width="10" stroke-linecap="round" stroke-miterlimit="10" x1="201.195" y1="147.395" x2="101.805" y2="176.636"/>
<line fill="none" stroke="#8CC63F" stroke-width="10" stroke-linecap="round" stroke-miterlimit="10" x1="185.231" y1="108.515" x2="64.207" y2="143.633"/>
<line fill="#FFFFFF" x1="296.674" y1="189.16" x2="272.752" y2="188.419"/>
<g>
	<path fill="none" stroke="#8CC63F" stroke-width="20" stroke-linecap="round" stroke-linejoin="round" stroke-miterlimit="10" d="
		M339.258,204.332l-38.466-26.869c0,0-51.45-34.95-92.469,1.43l-0.929,1.097c-41.019,36.38-93.659,3.581-93.659,3.581L65.1,149.6"/>
	<path fill="none" stroke="#8CC63F" stroke-width="20" stroke-linecap="round" stroke-linejoin="round" stroke-miterlimit="10" d="
		M277.97,292.073l-38.466-26.869c0,0-50.215-36.719-30.175-87.753l-0.538,0.538c20.04-51.034-30.121-87.382-30.121-87.382
		l-48.634-33.971"/>
</g>
<path opacity="0.6" fill="#FFFFFF" d="M217.112,185.604c-4.33,16.67-1.191,27.279-1.191,27.279l57.045-24.293
	c7.62,0.264,15.417,0.456,23.384,0.566l-77.398,33.361c0,0,4.922,13.804,17.534,26.092c0.073,0.071,0.146,0.142,0.219,0.213
	l92.444-39.078l-29.227-20.538c10.891,0.109,22.744-0.156,34.255-0.156c0.601,0,0.104-0.002,0.156-0.003l10.677,7.119
	c0,0,6.274,3.236,3.633,11.756c0,0-2.047,5.68-9.379,8.52c-7.331,2.84-94.313,40.09-94.313,40.09l38.439,27.079
	c0,0,8.652,6.208,2.18,14.992c0,0-6.274,7.793-15.851,0l-33.882-23.71c0,0-41.836-29.512-41.336-74.679
	c0,0-32.595,20.246-84.667-7.292l-52.5-36.875c0,0,25.667,8.938,72.608,17.542l-8.737,2.706c0,0,32.258,18.943,62.459,6.711
	l2.598-0.976c9.822,1.165,20.152,2.239,30.974,3.182"/>
</svg>
