<?xml version="1.0" encoding="utf-8"?>
<!-- Generator: Adobe Illustrator 17.0.2, SVG Export Plug-In . SVG Version: 6.00 Build 0)  -->
<!DOCTYPE svg PUBLIC "-//W3C//DTD SVG 1.1//EN" "http://www.w3.org/Graphics/SVG/1.1/DTD/svg11.dtd">
<svg version="1.1" id="Layer_1" xmlns="http://www.w3.org/2000/svg" xmlns:xlink="http://www.w3.org/1999/xlink" x="0px" y="0px"
	 width="256px" height="324px" viewBox="0 0 256 324" enable-background="new 0 0 256 324" xml:space="preserve">
<path id="fingerprint-icon_2_" fill="#29A5DC" d="M212.938,225.515c3.696,1.205,5.552,5.295,4.064,8.85
	c-1.422,3.399-5.223,5.127-8.721,3.975c-27.607-9.099-45.961-22.057-55.75-39.269c-1.865-3.278-0.718-7.447,2.56-9.312
	c3.277-1.865,7.447-0.719,9.312,2.561C172.525,206.602,188.508,217.559,212.938,225.515z M122.329,219.021
	c-8.954,5.228-23.965,13.991-55.145,23.247c-4.321,1.282-6.29,6.285-4.03,10.162c1.312,2.436,4.459,3.956,7.569,3.035
	c28.512-8.433,44.333-16.558,54.246-22.196c9.84-5.596,10.759-5.691,20.079,1.176c9.031,6.654,24.37,16.346,51.622,26.332
	c3.125,1.146,6.451-0.26,7.884-2.648c2.411-3.714,0.751-8.725-3.423-10.258c-32.528-11.947-46.686-23.247-53.73-28.87
	C138.272,211.714,135.205,211.502,122.329,219.021z M119.549,251.641c-6.727,3.487-16.872,8.745-34.296,14.811
	c-2.262,0.787-3.958,2.685-4.486,5.021c-1.139,5.052,3.626,9.731,8.331,8.105c18.694-6.462,29.568-12.096,36.738-15.812
	c5.464-2.832,8.813-3.416,15.08-0.017c7.934,4.3,20.444,11.077,37.9,18.132c4.935,1.995,9.968-2.395,9.034-7.59
	c-0.421-2.348-2.02-4.31-4.23-5.207c-16.651-6.75-28.599-13.226-36.195-17.343C135.466,245.263,134.074,244.112,119.549,251.641z
	 M112.225,285.427c-2.405,1.122-3.895,3.583-3.778,6.233c0.234,5.277,6.268,7.689,10.066,5.905
	c17.931-8.425,11.703-8.153,31.927,0.837c3.656,1.625,9.711-0.578,9.996-5.888c0.145-2.721-1.407-5.247-3.899-6.35
	C130.208,274.514,137.265,273.73,112.225,285.427z M137.06,135.137c1.46-3.477-0.173-7.48-3.652-8.941
	c-3.477-1.46-7.479,0.175-8.942,3.652c-11.157,26.562-39.357,47.049-76.514,56.077c-3.533,0.859-5.812,4.294-5.221,7.881
	c0.636,3.846,4.405,6.364,8.227,5.44C87.562,190.377,122.526,169.735,137.06,135.137z M143.882,179.125
	c8.671-9.912,15.573-20.9,20.512-32.659c4.965-11.818,4.109-23.725-2.407-33.531c-6.813-10.252-19.146-16.62-32.186-16.62
	c-7.367,0-14.458,2.041-20.507,5.904c-6.615,4.224-11.839,10.57-15.106,18.352c-6.823,16.241-24.73,29.296-49.088,36.267
	c-3.041,0.87-5.124,3.676-5.07,6.84c0.077,4.421,4.329,7.564,8.577,6.351c28.484-8.141,49.731-24.068,58.175-44.17
	c4.685-11.163,13.942-15.886,23.019-15.886c15.069,0,29.642,13.015,22.001,31.204c-16.134,38.407-53.907,63.128-96.595,73.993
	c-1.883,0.479-3.478,1.725-4.403,3.433c-0.924,1.708-1.098,3.729-0.467,5.565c1.132,3.295,4.592,5.161,7.968,4.305
	c20.929-5.306,40.289-13.616,56.671-24.395C126.033,196.806,135.758,188.412,143.882,179.125z M82.5,113.185
	c3.1-5.325,6.029-10.355,11.069-15.035c11.923-11.071,28.083-16.415,44.342-14.667c15.337,1.652,28.85,9.376,37.073,21.193
	c11.387,16.364,8.529,32.61,5.765,48.32c-2.363,13.432-4.807,27.322,2.78,39.479c5.729,9.179,16.575,16.134,33.511,21.328
	c3.582,1.098,7.37-1.036,8.279-4.674c0.916-3.67-1.192-7.404-4.806-8.523c-13.143-4.066-21.518-9.147-25.396-15.363
	c-4.815-7.715-3.008-17.987-0.916-29.881c2.94-16.708,6.599-37.503-8.005-58.489c-10.483-15.065-27.549-24.895-46.821-26.97
	c-20.19-2.174-40.275,4.473-55.097,18.237C77.747,94.202,74,100.636,70.696,106.312c-5.203,8.938-9.585,16.439-24.392,21.33
	c-2.351,0.777-4.206,2.778-4.592,5.735c-0.632,4.896,4.064,8.792,8.77,7.247C70.314,134.109,76.488,123.509,82.5,113.185z
	 M60.769,95.212c1.28-1.94,2.606-3.944,4.088-6.083c16.336-23.577,45.211-35.141,77.244-30.931
	c30.446,4.001,55.444,21.419,63.684,44.372c7.305,20.348,4.417,36.785,2.096,49.994c-2.004,11.406-3.735,21.256,2.322,29.161
	c2.459,3.209,5.962,5.69,10.772,7.55c4.014,1.552,8.402-1.122,8.89-5.373c0.369-3.217-1.439-6.279-4.432-7.517
	c-2.059-0.851-3.525-1.841-4.388-2.967c-2.408-3.144-1.218-9.916,0.289-18.491c2.463-14.017,5.836-33.213-2.693-56.972
	c-9.95-27.717-39.295-48.639-74.76-53.299c-30.879-4.055-62.401,4.769-83.552,28.252c-4.508,5.075-7.282,8.746-9.972,14.977
	c-1.754,4.065-1.069,6.998,1.878,9.021C55.137,98.897,58.843,98.125,60.769,95.212z"/>
<g>
	<path opacity="0.5" fill="#ECECEC" d="M46.427,127.673c-2.351,0.777-4.206,2.778-4.592,5.735c-0.632,4.896,4.064,8.792,8.77,7.247
		c10.36-3.403,16.989-7.922,21.818-12.932c-3.36-3.296-6.577-6.555-9.664-9.765C59.104,121.802,54.213,125.101,46.427,127.673z"/>
	<path opacity="0.5" fill="#ECECEC" d="M42.855,193.838c0.636,3.845,4.405,6.364,8.227,5.44
		c24.258-5.878,47.788-16.931,65.136-33.785c-3.755-2.828-7.416-5.681-10.976-8.548c-14.249,13.265-33.96,23.373-57.165,29.012
		C44.544,186.815,42.264,190.251,42.855,193.838z"/>
	<path opacity="0.5" fill="#ECECEC" d="M152.655,199.101c9.788,17.212,28.142,30.17,55.75,39.269c3.498,1.153,7.3-0.576,8.721-3.974
		c1.488-3.555-0.367-7.645-4.064-8.85c-20.317-6.616-34.772-15.317-43.742-26.271c-5.248-2.758-10.368-5.617-15.366-8.555
		C151.677,192.826,151.055,196.29,152.655,199.101z"/>
	<path opacity="0.5" fill="#ECECEC" d="M48.731,170.059c17.939-5.127,33.003-13.344,43.811-23.746
		c-3.499-3.043-6.88-6.084-10.158-9.113c-9.064,8.484-21.831,15.283-37.16,19.669c-3.041,0.871-5.124,3.676-5.07,6.84
		C40.232,168.128,44.483,171.272,48.731,170.059z"/>
	<path opacity="0.5" fill="#ECECEC" d="M140.829,182.654c-3.936-2.53-7.78-5.107-11.544-7.717
		c-19.143,19.564-45.447,33.008-73.955,40.264c-1.883,0.479-3.478,1.725-4.403,3.433c-0.924,1.708-1.098,3.728-0.467,5.565
		c1.132,3.295,4.592,5.161,7.968,4.304c20.929-5.305,40.289-13.616,56.671-24.394C124.751,197.762,133.386,190.558,140.829,182.654z
		"/>
	<path opacity="0.5" fill="#ECECEC" d="M187.973,274.324c-0.421-2.349-2.02-4.31-4.23-5.207
		c-16.651-6.75-28.599-13.226-36.196-17.343c-11.957-6.479-13.35-7.629-27.875-0.101c-6.727,3.487-16.872,8.745-34.296,14.811
		c-2.262,0.787-3.958,2.686-4.486,5.021c-1.139,5.052,3.626,9.731,8.331,8.105c18.694-6.462,29.568-12.097,36.737-15.812
		c5.464-2.832,8.813-3.416,15.08-0.017c7.934,4.3,20.444,11.077,37.9,18.132C183.873,283.908,188.906,279.518,187.973,274.324z"/>
	<path opacity="0.5" fill="#ECECEC" d="M112.349,285.458c-2.405,1.122-3.895,3.583-3.778,6.233
		c0.234,5.277,6.268,7.689,10.066,5.905c17.931-8.425,11.703-8.153,31.927,0.837c3.656,1.625,9.711-0.578,9.996-5.888
		c0.145-2.72-1.407-5.247-3.899-6.349C130.332,274.545,137.389,273.761,112.349,285.458z"/>
	<path opacity="0.5" fill="#ECECEC" d="M70.847,255.497c28.512-8.433,44.333-16.558,54.245-22.196
		c9.84-5.596,10.759-5.691,20.079,1.176c9.031,6.654,24.37,16.347,51.622,26.332c3.125,1.146,6.451-0.26,7.884-2.648
		c2.411-3.714,0.751-8.725-3.423-10.258c-32.528-11.947-46.686-23.246-53.73-28.87c-9.129-7.288-12.196-7.501-25.072,0.019
		c-8.954,5.228-23.965,13.99-55.145,23.247c-4.321,1.282-6.29,6.285-4.03,10.162C64.59,254.898,67.737,256.418,70.847,255.497z"/>
</g>
</svg>
