<?xml version="1.0" encoding="utf-8"?>
<!-- Generator: Adobe Illustrator 17.0.2, SVG Export Plug-In . SVG Version: 6.00 Build 0)  -->
<!DOCTYPE svg PUBLIC "-//W3C//DTD SVG 1.1//EN" "http://www.w3.org/Graphics/SVG/1.1/DTD/svg11.dtd">
<svg version="1.1" id="Layer_1" xmlns="http://www.w3.org/2000/svg" xmlns:xlink="http://www.w3.org/1999/xlink" x="0px" y="0px"
	 width="316px" height="380px" viewBox="0 0 316 380" enable-background="new 0 0 316 380" xml:space="preserve">
<path id="flask-7-icon_4_" fill="#F6DC21" d="M199.728,60.033v73.165c0,25.193,14.667,50.065,25.584,72.771l39.235,81.598
	c8.093,16.831-4.196,36.376-22.871,36.376H103.778c-18.674,0-30.964-19.545-22.871-36.374l39.234-81.6
	c10.917-22.704,25.584-47.577,25.584-72.77V60.034l52.996-0.001L199.728,60.033z"/>
<path id="flask-7-icon_3_" opacity="0.6" fill="#FFFFFF" d="M218.744,216.045l34.489,69.281c7.114,14.29-3.688,30.885-20.104,30.885
	H111.911c-16.415,0-27.219-16.595-20.105-30.884l34.489-69.283H218.744z"/>
<line fill="none" stroke="#FFFFFF" stroke-width="5" stroke-linecap="round" stroke-miterlimit="10" x1="156" y1="92.5" x2="171" y2="92.5"/>
<line fill="none" stroke="#FFFFFF" stroke-width="5" stroke-linecap="round" stroke-miterlimit="10" x1="156" y1="125.5" x2="171" y2="125.5"/>
<line fill="none" stroke="#FFFFFF" stroke-width="5" stroke-linecap="round" stroke-miterlimit="10" x1="153" y1="157.5" x2="171" y2="157.5"/>
<line fill="none" stroke="#FFFFFF" stroke-width="5" stroke-linecap="round" stroke-miterlimit="10" x1="142" y1="190.5" x2="171" y2="190.5"/>
<path fill="#F6E821" d="M207,60.5c0,3.038-2.462,5.5-5.5,5.5h-58c-3.038,0-5.5-2.462-5.5-5.5l0,0c0-3.038,2.462-5.5,5.5-5.5h58
	C204.538,55,207,57.462,207,60.5L207,60.5z"/>
<path fill="none" d="M65.751,129.455"/>
<path id="flask-7-icon_5_" opacity="0.5" fill="#FFFFFF" d="M259.459,276.483l5.088,11.085c8.093,16.831-4.196,36.376-22.871,36.376
	H103.778c-18.674,0-30.964-19.545-22.871-36.374l25.765-53.392C155.176,265.705,259.459,276.483,259.459,276.483z"/>
</svg>
