<?xml version="1.0" encoding="utf-8"?>
<!-- Generator: Adobe Illustrator 17.0.2, SVG Export Plug-In . SVG Version: 6.00 Build 0)  -->
<!DOCTYPE svg PUBLIC "-//W3C//DTD SVG 1.1//EN" "http://www.w3.org/Graphics/SVG/1.1/DTD/svg11.dtd">
<svg version="1.1" id="Layer_1" xmlns="http://www.w3.org/2000/svg" xmlns:xlink="http://www.w3.org/1999/xlink" x="0px" y="0px"
	 width="528px" height="288px" viewBox="0 0 528 288" enable-background="new 0 0 528 288" xml:space="preserve">
<path fill="#F6AF21" d="M64.754,51h391.779H480v23.572v140.653c0,12.58-10.318,23.775-22.898,23.775H65.323
	C52.743,239,42,227.805,42,215.225V74.572V51H64.754z"/>
<path opacity="0.5" fill="#FFFFFF" d="M480.009,215.03c0,12.58-10.327,23.97-22.907,23.97H65.323C52.743,239,42,227.805,42,215.225
	V74.237V51h20.601C62.601,51,205.733,135.735,480.009,215.03z"/>
<path fill="#FFFFFF" d="M84,103.978c0,3.326-2.696,6.022-6.022,6.022h-9.956c-3.326,0-6.022-2.696-6.022-6.022v-8.956
	C62,91.696,64.696,89,68.022,89h9.956C81.304,89,84,91.696,84,95.022V103.978z"/>
<path fill="#FFFFFF" d="M111,103.978c0,3.326-2.696,6.022-6.022,6.022h-9.956c-3.326,0-6.022-2.696-6.022-6.022v-8.956
	C89,91.696,91.696,89,95.022,89h9.956c3.326,0,6.022,2.696,6.022,6.022V103.978z"/>
<path fill="#FFFFFF" d="M139,103.978c0,3.326-2.696,6.022-6.022,6.022h-9.956c-3.326,0-6.022-2.696-6.022-6.022v-8.956
	c0-3.326,2.696-6.022,6.022-6.022h9.956c3.326,0,6.022,2.696,6.022,6.022V103.978z"/>
<path fill="#FFFFFF" d="M168,103.978c0,3.326-2.696,6.022-6.022,6.022h-9.956c-3.326,0-6.022-2.696-6.022-6.022v-8.956
	c0-3.326,2.696-6.022,6.022-6.022h9.956c3.326,0,6.022,2.696,6.022,6.022V103.978z"/>
<path fill="#FFFFFF" d="M196,103.978c0,3.326-2.696,6.022-6.022,6.022h-9.956c-3.326,0-6.022-2.696-6.022-6.022v-8.956
	c0-3.326,2.696-6.022,6.022-6.022h9.956c3.326,0,6.022,2.696,6.022,6.022V103.978z"/>
<path fill="#FFFFFF" d="M224,103.978c0,3.326-2.696,6.022-6.022,6.022h-9.956c-3.326,0-6.022-2.696-6.022-6.022v-8.956
	c0-3.326,2.696-6.022,6.022-6.022h9.956c3.326,0,6.022,2.696,6.022,6.022V103.978z"/>
<path fill="#FFFFFF" d="M251,103.978c0,3.326-2.696,6.022-6.022,6.022h-9.956c-3.326,0-6.022-2.696-6.022-6.022v-8.956
	c0-3.326,2.696-6.022,6.022-6.022h9.956c3.326,0,6.022,2.696,6.022,6.022V103.978z"/>
<path fill="#FFFFFF" d="M278,103.978c0,3.326-2.696,6.022-6.022,6.022h-9.956c-3.326,0-6.022-2.696-6.022-6.022v-8.956
	c0-3.326,2.696-6.022,6.022-6.022h9.956c3.326,0,6.022,2.696,6.022,6.022V103.978z"/>
<path fill="#FFFFFF" d="M306,103.978c0,3.326-2.696,6.022-6.022,6.022h-9.956c-3.326,0-6.022-2.696-6.022-6.022v-8.956
	c0-3.326,2.696-6.022,6.022-6.022h9.956c3.326,0,6.022,2.696,6.022,6.022V103.978z"/>
<path fill="#FFFFFF" d="M335,103.978c0,3.326-2.696,6.022-6.022,6.022h-9.956c-3.326,0-6.022-2.696-6.022-6.022v-8.956
	c0-3.326,2.696-6.022,6.022-6.022h9.956c3.326,0,6.022,2.696,6.022,6.022V103.978z"/>
<path fill="#FFFFFF" d="M362,103.978c0,3.326-2.696,6.022-6.022,6.022h-9.956c-3.326,0-6.022-2.696-6.022-6.022v-8.956
	c0-3.326,2.696-6.022,6.022-6.022h9.956c3.326,0,6.022,2.696,6.022,6.022V103.978z"/>
<path fill="#FFFFFF" d="M389,103.978c0,3.326-2.696,6.022-6.022,6.022h-9.956c-3.326,0-6.022-2.696-6.022-6.022v-8.956
	c0-3.326,2.696-6.022,6.022-6.022h9.956c3.326,0,6.022,2.696,6.022,6.022V103.978z"/>
<path fill="#FFFFFF" d="M124,130.978c0,3.326-2.696,6.022-6.022,6.022h-9.956c-3.326,0-6.022-2.696-6.022-6.022v-8.956
	c0-3.326,2.696-6.022,6.022-6.022h9.956c3.326,0,6.022,2.696,6.022,6.022V130.978z"/>
<path fill="#FFFFFF" d="M98,130.978c0,3.326-2.696,6.022-6.022,6.022H68.022c-3.326,0-6.022-2.696-6.022-6.022v-8.956
	c0-3.326,2.696-6.022,6.022-6.022h23.956c3.326,0,6.022,2.696,6.022,6.022V130.978z"/>
<path fill="#FFFFFF" d="M153,130.978c0,3.326-2.696,6.022-6.022,6.022h-9.956c-3.326,0-6.022-2.696-6.022-6.022v-8.956
	c0-3.326,2.696-6.022,6.022-6.022h9.956c3.326,0,6.022,2.696,6.022,6.022V130.978z"/>
<path fill="#FFFFFF" d="M180,130.978c0,3.326-2.696,6.022-6.022,6.022h-9.956c-3.326,0-6.022-2.696-6.022-6.022v-8.956
	c0-3.326,2.696-6.022,6.022-6.022h9.956c3.326,0,6.022,2.696,6.022,6.022V130.978z"/>
<path fill="#FFFFFF" d="M208,130.978c0,3.326-2.696,6.022-6.022,6.022h-9.956c-3.326,0-6.022-2.696-6.022-6.022v-8.956
	c0-3.326,2.696-6.022,6.022-6.022h9.956c3.326,0,6.022,2.696,6.022,6.022V130.978z"/>
<path fill="#FFFFFF" d="M237,130.978c0,3.326-2.696,6.022-6.022,6.022h-9.956c-3.326,0-6.022-2.696-6.022-6.022v-8.956
	c0-3.326,2.696-6.022,6.022-6.022h9.956c3.326,0,6.022,2.696,6.022,6.022V130.978z"/>
<path fill="#FFFFFF" d="M265,130.978c0,3.326-2.696,6.022-6.022,6.022h-9.956c-3.326,0-6.022-2.696-6.022-6.022v-8.956
	c0-3.326,2.696-6.022,6.022-6.022h9.956c3.326,0,6.022,2.696,6.022,6.022V130.978z"/>
<path fill="#FFFFFF" d="M293,130.978c0,3.326-2.696,6.022-6.022,6.022h-9.956c-3.326,0-6.022-2.696-6.022-6.022v-8.956
	c0-3.326,2.696-6.022,6.022-6.022h9.956c3.326,0,6.022,2.696,6.022,6.022V130.978z"/>
<path fill="#FFFFFF" d="M320,130.978c0,3.326-2.696,6.022-6.022,6.022h-9.956c-3.326,0-6.022-2.696-6.022-6.022v-8.956
	c0-3.326,2.696-6.022,6.022-6.022h9.956c3.326,0,6.022,2.696,6.022,6.022V130.978z"/>
<path fill="#FFFFFF" d="M349,130.978c0,3.326-2.696,6.022-6.022,6.022h-9.956c-3.326,0-6.022-2.696-6.022-6.022v-8.956
	c0-3.326,2.696-6.022,6.022-6.022h9.956c3.326,0,6.022,2.696,6.022,6.022V130.978z"/>
<path fill="#FFFFFF" d="M377,130.978c0,3.326-2.696,6.022-6.022,6.022h-9.956c-3.326,0-6.022-2.696-6.022-6.022v-8.956
	c0-3.326,2.696-6.022,6.022-6.022h9.956c3.326,0,6.022,2.696,6.022,6.022V130.978z"/>
<path fill="#FFFFFF" d="M404,130.978c0,3.326-2.696,6.022-6.022,6.022h-9.956c-3.326,0-6.022-2.696-6.022-6.022v-8.956
	c0-3.326,2.696-6.022,6.022-6.022h9.956c3.326,0,6.022,2.696,6.022,6.022V130.978z"/>
<path fill="#FFFFFF" d="M433,130.978c0,3.326-2.696,6.022-6.022,6.022h-9.956c-3.326,0-6.022-2.696-6.022-6.022v-8.956
	c0-3.326,2.696-6.022,6.022-6.022h9.956c3.326,0,6.022,2.696,6.022,6.022V130.978z"/>
<path fill="#FFFFFF" d="M463,130.978c0,3.326-2.696,6.022-6.022,6.022h-12.956c-3.326,0-6.022-2.696-6.022-6.022v-8.956
	c0-3.326,2.696-6.022,6.022-6.022h12.956c3.326,0,6.022,2.696,6.022,6.022V130.978z"/>
<path fill="#FFFFFF" d="M132,157.978c0,3.326-2.696,6.022-6.022,6.022h-9.956c-3.326,0-6.022-2.696-6.022-6.022v-8.956
	c0-3.326,2.696-6.022,6.022-6.022h9.956c3.326,0,6.022,2.696,6.022,6.022V157.978z"/>
<path fill="#FFFFFF" d="M104,157.978c0,3.326-2.696,6.022-6.022,6.022H68.022c-3.326,0-6.022-2.696-6.022-6.022v-8.956
	c0-3.326,2.696-6.022,6.022-6.022h29.956c3.326,0,6.022,2.696,6.022,6.022V157.978z"/>
<path fill="#FFFFFF" d="M160,157.978c0,3.326-2.696,6.022-6.022,6.022h-9.956c-3.326,0-6.022-2.696-6.022-6.022v-8.956
	c0-3.326,2.696-6.022,6.022-6.022h9.956c3.326,0,6.022,2.696,6.022,6.022V157.978z"/>
<path fill="#FFFFFF" d="M187,157.978c0,3.326-2.696,6.022-6.022,6.022h-9.956c-3.326,0-6.022-2.696-6.022-6.022v-8.956
	c0-3.326,2.696-6.022,6.022-6.022h9.956c3.326,0,6.022,2.696,6.022,6.022V157.978z"/>
<path fill="#FFFFFF" d="M214,157.978c0,3.326-2.696,6.022-6.022,6.022h-9.956c-3.326,0-6.022-2.696-6.022-6.022v-8.956
	c0-3.326,2.696-6.022,6.022-6.022h9.956c3.326,0,6.022,2.696,6.022,6.022V157.978z"/>
<path fill="#FFFFFF" d="M244,157.978c0,3.326-2.696,6.022-6.022,6.022h-9.956c-3.326,0-6.022-2.696-6.022-6.022v-8.956
	c0-3.326,2.696-6.022,6.022-6.022h9.956c3.326,0,6.022,2.696,6.022,6.022V157.978z"/>
<path fill="#FFFFFF" d="M273,157.978c0,3.326-2.696,6.022-6.022,6.022h-9.956c-3.326,0-6.022-2.696-6.022-6.022v-8.956
	c0-3.326,2.696-6.022,6.022-6.022h9.956c3.326,0,6.022,2.696,6.022,6.022V157.978z"/>
<path fill="#FFFFFF" d="M300,157.978c0,3.326-2.696,6.022-6.022,6.022h-9.956c-3.326,0-6.022-2.696-6.022-6.022v-8.956
	c0-3.326,2.696-6.022,6.022-6.022h9.956c3.326,0,6.022,2.696,6.022,6.022V157.978z"/>
<path fill="#FFFFFF" d="M329,157.978c0,3.326-2.696,6.022-6.022,6.022h-9.956c-3.326,0-6.022-2.696-6.022-6.022v-8.956
	c0-3.326,2.696-6.022,6.022-6.022h9.956c3.326,0,6.022,2.696,6.022,6.022V157.978z"/>
<path fill="#FFFFFF" d="M357,157.978c0,3.326-2.696,6.022-6.022,6.022h-9.956c-3.326,0-6.022-2.696-6.022-6.022v-8.956
	c0-3.326,2.696-6.022,6.022-6.022h9.956c3.326,0,6.022,2.696,6.022,6.022V157.978z"/>
<path fill="#FFFFFF" d="M385,157.978c0,3.326-2.696,6.022-6.022,6.022h-9.956c-3.326,0-6.022-2.696-6.022-6.022v-8.956
	c0-3.326,2.696-6.022,6.022-6.022h9.956c3.326,0,6.022,2.696,6.022,6.022V157.978z"/>
<path fill="#FFFFFF" d="M412,157.978c0,3.326-2.696,6.022-6.022,6.022h-9.956c-3.326,0-6.022-2.696-6.022-6.022v-8.956
	c0-3.326,2.696-6.022,6.022-6.022h9.956c3.326,0,6.022,2.696,6.022,6.022V157.978z"/>
<path fill="#FFFFFF" d="M462,157.978c0,3.326-2.696,6.022-6.022,6.022h-31.956c-3.326,0-6.022-2.696-6.022-6.022v-8.956
	c0-3.326,2.696-6.022,6.022-6.022h31.956c3.326,0,6.022,2.696,6.022,6.022V157.978z"/>
<path fill="#FFFFFF" d="M143,184.978c0,3.326-2.696,6.022-6.022,6.022h-9.956c-3.326,0-6.022-2.696-6.022-6.022v-8.956
	c0-3.326,2.696-6.022,6.022-6.022h9.956c3.326,0,6.022,2.696,6.022,6.022V184.978z"/>
<path fill="#FFFFFF" d="M118,184.978c0,3.326-2.696,6.022-6.022,6.022H68.022c-3.326,0-6.022-2.696-6.022-6.022v-8.956
	c0-3.326,2.696-6.022,6.022-6.022h43.956c3.326,0,6.022,2.696,6.022,6.022V184.978z"/>
<path fill="#FFFFFF" d="M171,184.978c0,3.326-2.696,6.022-6.022,6.022h-9.956c-3.326,0-6.022-2.696-6.022-6.022v-8.956
	c0-3.326,2.696-6.022,6.022-6.022h9.956c3.326,0,6.022,2.696,6.022,6.022V184.978z"/>
<path fill="#FFFFFF" d="M200,184.978c0,3.326-2.696,6.022-6.022,6.022h-9.956c-3.326,0-6.022-2.696-6.022-6.022v-8.956
	c0-3.326,2.696-6.022,6.022-6.022h9.956c3.326,0,6.022,2.696,6.022,6.022V184.978z"/>
<path fill="#FFFFFF" d="M229,184.978c0,3.326-2.696,6.022-6.022,6.022h-9.956c-3.326,0-6.022-2.696-6.022-6.022v-8.956
	c0-3.326,2.696-6.022,6.022-6.022h9.956c3.326,0,6.022,2.696,6.022,6.022V184.978z"/>
<path fill="#FFFFFF" d="M84,211.978c0,3.326-2.696,6.022-6.022,6.022h-9.956c-3.326,0-6.022-2.696-6.022-6.022v-8.956
	c0-3.326,2.696-6.022,6.022-6.022h9.956c3.326,0,6.022,2.696,6.022,6.022V211.978z"/>
<path fill="#FFFFFF" d="M111,211.978c0,3.326-2.696,6.022-6.022,6.022h-9.956c-3.326,0-6.022-2.696-6.022-6.022v-8.956
	c0-3.326,2.696-6.022,6.022-6.022h9.956c3.326,0,6.022,2.696,6.022,6.022V211.978z"/>
<path fill="#FFFFFF" d="M138,211.978c0,3.326-2.696,6.022-6.022,6.022h-9.956c-3.326,0-6.022-2.696-6.022-6.022v-8.956
	c0-3.326,2.696-6.022,6.022-6.022h9.956c3.326,0,6.022,2.696,6.022,6.022V211.978z"/>
<path fill="#FFFFFF" d="M376,211.978c0,3.326-2.696,6.022-6.022,6.022h-18.956c-3.326,0-6.022-2.696-6.022-6.022v-8.956
	c0-3.326,2.696-6.022,6.022-6.022h18.956c3.326,0,6.022,2.696,6.022,6.022V211.978z"/>
<path fill="#FFFFFF" d="M172,211.978c0,3.326-2.696,6.022-6.022,6.022h-16.956c-3.326,0-6.022-2.696-6.022-6.022v-8.956
	c0-3.326,2.696-6.022,6.022-6.022h16.956c3.326,0,6.022,2.696,6.022,6.022V211.978z"/>
<path fill="#FFFFFF" d="M341,211.978c0,3.326-2.696,6.022-6.022,6.022h-16.956c-3.326,0-6.022-2.696-6.022-6.022v-8.956
	c0-3.326,2.696-6.022,6.022-6.022h16.956c3.326,0,6.022,2.696,6.022,6.022V211.978z"/>
<path fill="#FFFFFF" d="M304,211.978c0,3.326-2.696,6.022-6.022,6.022H185.022c-3.326,0-6.022-2.696-6.022-6.022v-8.956
	c0-3.326,2.696-6.022,6.022-6.022h112.956c3.326,0,6.022,2.696,6.022,6.022V211.978z"/>
<path fill="#FFFFFF" d="M255,184.978c0,3.326-2.696,6.022-6.022,6.022h-9.956c-3.326,0-6.022-2.696-6.022-6.022v-8.956
	c0-3.326,2.696-6.022,6.022-6.022h9.956c3.326,0,6.022,2.696,6.022,6.022V184.978z"/>
<path fill="#FFFFFF" d="M283,184.978c0,3.326-2.696,6.022-6.022,6.022h-9.956c-3.326,0-6.022-2.696-6.022-6.022v-8.956
	c0-3.326,2.696-6.022,6.022-6.022h9.956c3.326,0,6.022,2.696,6.022,6.022V184.978z"/>
<path fill="#FFFFFF" d="M311,184.978c0,3.326-2.696,6.022-6.022,6.022h-9.956c-3.326,0-6.022-2.696-6.022-6.022v-8.956
	c0-3.326,2.696-6.022,6.022-6.022h9.956c3.326,0,6.022,2.696,6.022,6.022V184.978z"/>
<path fill="#FFFFFF" d="M339,184.978c0,3.326-2.696,6.022-6.022,6.022h-9.956c-3.326,0-6.022-2.696-6.022-6.022v-8.956
	c0-3.326,2.696-6.022,6.022-6.022h9.956c3.326,0,6.022,2.696,6.022,6.022V184.978z"/>
<path fill="#FFFFFF" d="M367,184.978c0,3.326-2.696,6.022-6.022,6.022h-9.956c-3.326,0-6.022-2.696-6.022-6.022v-8.956
	c0-3.326,2.696-6.022,6.022-6.022h9.956c3.326,0,6.022,2.696,6.022,6.022V184.978z"/>
<path fill="#FFFFFF" d="M395,184.978c0,3.326-2.696,6.022-6.022,6.022h-9.956c-3.326,0-6.022-2.696-6.022-6.022v-8.956
	c0-3.326,2.696-6.022,6.022-6.022h9.956c3.326,0,6.022,2.696,6.022,6.022V184.978z"/>
<path fill="#FFFFFF" d="M462,184.978c0,3.326-2.696,6.022-6.022,6.022h-51.956c-3.326,0-6.022-2.696-6.022-6.022v-8.956
	c0-3.326,2.696-6.022,6.022-6.022h51.956c3.326,0,6.022,2.696,6.022,6.022V184.978z"/>
<path fill="#FFFFFF" d="M418,103.978c0,3.326-2.696,6.022-6.022,6.022h-9.956c-3.326,0-6.022-2.696-6.022-6.022v-8.956
	c0-3.326,2.696-6.022,6.022-6.022h9.956c3.326,0,6.022,2.696,6.022,6.022V103.978z"/>
<path fill="#FFFFFF" d="M463,103.978c0,3.326-2.696,6.022-6.022,6.022h-26.956c-3.326,0-6.022-2.696-6.022-6.022v-8.956
	c0-3.326,2.696-6.022,6.022-6.022h26.956c3.326,0,6.022,2.696,6.022,6.022V103.978z"/>
<path fill="#FFFFFF" d="M85,78.307C85,81.632,82.517,85,79.191,85H67.147C63.821,85,62,81.632,62,78.307v-4.015
	C62,70.966,63.821,70,67.147,70h12.044C82.517,70,85,71.969,85,75.295V78.307z"/>
<path fill="#FFFFFF" d="M115,78.307c0,3.326-3.317,6.693-6.643,6.693H96.313C92.987,85,90,81.632,90,78.307v-4.015
	C90,70.966,92.987,70,96.313,70h12.044c3.326,0,6.643,1.969,6.643,5.295V78.307z"/>
<path fill="#FFFFFF" d="M143,78.307c0,3.326-2.151,6.693-5.477,6.693h-12.044c-3.326,0-7.478-3.368-7.478-6.693v-4.015
	c0-3.326,4.152-4.292,7.478-4.292h12.044c3.326,0,5.477,1.969,5.477,5.295V78.307z"/>
<path fill="#FFFFFF" d="M172,78.307c0,3.326-1.986,6.693-5.312,6.693h-12.044c-3.326,0-5.644-3.368-5.644-6.693v-4.015
	c0-3.326,2.318-4.292,5.644-4.292h12.044c3.326,0,5.312,1.969,5.312,5.295V78.307z"/>
<path fill="#FFFFFF" d="M202,78.307c0,3.326-1.787,6.693-5.113,6.693h-12.044c-3.326,0-5.843-3.368-5.843-6.693v-4.015
	c0-3.326,2.517-4.292,5.843-4.292h12.044c3.326,0,5.113,1.969,5.113,5.295V78.307z"/>
<path fill="#FFFFFF" d="M231,78.307c0,3.326-1.621,6.693-4.947,6.693h-12.044c-3.326,0-6.009-3.368-6.009-6.693v-4.015
	c0-3.326,2.683-4.292,6.009-4.292h12.044c3.326,0,4.947,1.969,4.947,5.295V78.307z"/>
<path fill="#FFFFFF" d="M261,78.307c0,3.326-2.455,6.693-5.781,6.693h-12.044c-3.326,0-7.174-3.368-7.174-6.693v-4.015
	c0-3.326,3.848-4.292,7.174-4.292h12.044c3.326,0,5.781,1.969,5.781,5.295V78.307z"/>
<path fill="#FFFFFF" d="M291,78.307c0,3.326-3.29,6.693-6.616,6.693H272.34c-3.326,0-5.34-3.368-5.34-6.693v-4.015
	c0-3.326,2.014-4.292,5.34-4.292h12.044c3.326,0,6.616,1.969,6.616,5.295V78.307z"/>
<path fill="#FFFFFF" d="M319,78.307c0,3.326-3.128,6.693-6.454,6.693h-12.044c-3.326,0-5.502-3.368-5.502-6.693v-4.015
	c0-3.326,2.176-4.292,5.502-4.292h12.044c3.326,0,6.454,1.969,6.454,5.295V78.307z"/>
<path fill="#FFFFFF" d="M347,78.307c0,3.326-1.962,6.693-5.288,6.693h-12.044c-3.326,0-7.668-3.368-7.668-6.693v-4.015
	c0-3.326,4.342-4.292,7.668-4.292h12.044c3.326,0,5.288,1.969,5.288,5.295V78.307z"/>
<path fill="#FFFFFF" d="M377,78.307c0,3.326-2.796,6.693-6.122,6.693h-12.044c-3.326,0-5.833-3.368-5.833-6.693v-4.015
	c0-3.326,2.508-4.292,5.833-4.292h12.044c3.326,0,6.122,1.969,6.122,5.295V78.307z"/>
<path fill="#FFFFFF" d="M407,78.307c0,3.326-3.631,6.693-6.956,6.693h-12.044c-3.326,0-5.999-3.368-5.999-6.693v-4.015
	c0-3.326,2.673-4.292,5.999-4.292h12.044c3.326,0,6.956,1.969,6.956,5.295V78.307z"/>
<path fill="#FFFFFF" d="M411,212.624c0,3.326-2.495,6.376-5.821,6.376h-10.037c-3.326,0-6.142-3.05-6.142-6.376v-4.015
	c0-3.326,2.816-5.609,6.142-5.609h10.037c3.326,0,5.821,3.287,5.821,6.613V212.624z"/>
<path fill="#FFFFFF" d="M462,212.624c0,3.326-1.303,6.376-4.629,6.376h-10.037c-3.326,0-6.334-3.05-6.334-6.376v-4.015
	c0-3.326,3.008-5.609,6.334-5.609h10.037c3.326,0,4.629,3.287,4.629,6.613V212.624z"/>
<path fill="#FFFFFF" d="M437,212.624c0,3.326-2.399,6.376-5.725,6.376h-10.037c-3.326,0-5.238-3.05-5.238-6.376v-11.041
	c0-3.326,1.912-4.583,5.238-4.583h10.037c3.326,0,5.725,2.261,5.725,5.587V212.624z"/>
<path fill="#FFFFFF" d="M433,78.307c0,3.326-1.468,6.693-4.794,6.693h-12.044c-3.326,0-5.161-3.368-5.161-6.693v-4.015
	c0-3.326,1.835-4.292,5.161-4.292h12.044c3.326,0,4.794,1.969,4.794,5.295V78.307z"/>
<path fill="#FFFFFF" d="M462,78.307c0,3.326-1.303,6.693-4.629,6.693h-12.044c-3.326,0-6.327-3.368-6.327-6.693v-4.015
	c0-3.326,3.001-4.292,6.327-4.292h12.044c3.326,0,4.629,1.969,4.629,5.295V78.307z"/>
</svg>
