<?xml version="1.0" encoding="utf-8"?>
<!-- Generator: Adobe Illustrator 17.0.2, SVG Export Plug-In . SVG Version: 6.00 Build 0)  -->
<!DOCTYPE svg PUBLIC "-//W3C//DTD SVG 1.1//EN" "http://www.w3.org/Graphics/SVG/1.1/DTD/svg11.dtd">
<svg version="1.1" id="Layer_1" xmlns="http://www.w3.org/2000/svg" xmlns:xlink="http://www.w3.org/1999/xlink" x="0px" y="0px"
	 width="368px" height="316px" viewBox="0 0 368 316" enable-background="new 0 0 368 316" xml:space="preserve">
<path fill="#666666" d="M301,209.299c0,3.364-3.045,5.701-6.517,5.701H74.286c-3.471,0-6.286-2.337-6.286-5.701V66.138
	C68,62.774,70.814,60,74.286,60h220.198c3.471,0,6.517,2.774,6.517,6.138V209.299z"/>
<path fill="#C6C6C6" d="M313.125,254.985c1,2.5,0.043,5.089-0.875,6.312c-1.125,1.5-3.098,2.125-4.875,2.125l-247.089-0.375
	c-1.848,0-4.011-0.674-5.161-1.812c-1.011-1.001-1.562-3.438-0.562-5.562l12.125-34.774c1.562-3.812,3.127-5.899,6.598-5.899
	h220.198c3.471,0,5.971,2.731,6.895,5.927L313.125,254.985z"/>
<path fill="#939393" d="M296.849,246.93c0.848,2.121,0.036,4.318-0.742,5.356c-0.954,1.273-2.629,1.803-4.136,1.803l-217.632,0.682
	c-1.568,0-3.403-0.571-4.378-1.538c-0.858-0.849-1.326-2.916-0.477-4.719l7.287-20.506c1.326-3.235,2.653-5.008,5.598-5.008h201.817
	c2.945,0,5.066,2.32,5.85,5.032L296.849,246.93z"/>
<rect x="79" y="70" fill="#E0E0E0" width="213" height="133"/>
<path opacity="0.5" fill="#939393" d="M300.984,209.422c0.063-7.797,0-28.274,0-28.274S185.532,161,80.667,60H75c0,0-6-0.953-7,5.88
	v143.167c0,0-0.444,5.329,5.642,5.943c0.372,0.038,0.769,0.057,1.191,0.057c0,0-5.167-1.333-7.833,5l-12.667,36
	c0,0-2.333,6.667,5.667,7l248.333,0.333c0,0,2.729,0.042,4.322-2.685c0.793-1.356,1.376-3.118,0.501-5.743
	c-2.333-7-13.49-35.906-13.49-35.906s-2.042-3.938-5.87-3.984c0,0,3.203,0.219,5.476-1.822
	C300.178,212.428,300.938,211.125,300.984,209.422z"/>
</svg>
