<?xml version="1.0" encoding="utf-8"?>
<!-- Generator: Adobe Illustrator 17.0.2, SVG Export Plug-In . SVG Version: 6.00 Build 0)  -->
<!DOCTYPE svg PUBLIC "-//W3C//DTD SVG 1.1//EN" "http://www.w3.org/Graphics/SVG/1.1/DTD/svg11.dtd">
<svg version="1.1" id="Layer_1" xmlns="http://www.w3.org/2000/svg" xmlns:xlink="http://www.w3.org/1999/xlink" x="0px" y="0px"
	 width="396px" height="336px" viewBox="0 0 396 336" enable-background="new 0 0 396 336" xml:space="preserve">
<path fill="none" stroke="#000000" stroke-miterlimit="10" d="M330.344,148.05"/>
<path fill="none" stroke="#000000" stroke-miterlimit="10" d="M197.663,176.053"/>
<path fill="none" stroke="#000000" stroke-miterlimit="10" d="M63.322,227.688"/>
<polygon fill="#E0E0E0" points="95.445,187 58.902,222.971 65.384,239.945 130.818,267.375 285.242,263.423 327.12,243.78 
	336.414,222.978 299.872,187 "/>
<path fill="#ADADAD" d="M300.397,167.65l-0.525,18.986c0,3.921-1.516,7.855-4.337,11.425C282.857,214.11,243.82,226,197.63,226
	h0.058c-46.191,0-85.227-11.89-97.906-27.939c-2.821-3.57-4.337-7.512-4.337-11.433l-0.525-18.983L300.397,167.65z"/>
<path fill="#939393" d="M197.159,261c-70.916,0-129.47-16.595-138.305-38.164l1.647,31.374C78.948,274.256,133.157,289,197.159,289
	h0.917c64.002,0,118.211-14.709,136.657-34.755l1.647-31.315C327.545,244.5,268.992,261,198.075,261H197.159z"/>
<path fill="#939393" d="M81.717,135.294l5.669,23.991c1.107,4.435,4.479,6.416,4.479,6.416C110.227,177.009,150.165,185,196.477,185
	h0.996h0.642c46.311,0,86.249-7.991,104.612-19.298c0,0,3.372-1.932,4.479-6.368l5.956-21.87L81.717,135.294z"/>
<path fill="none" stroke="#000000" stroke-miterlimit="10" d="M70.306,135.51"/>
<path fill="#ADADAD" d="M80.933,80l0.738,54.908c0,12.833,51.725,23.092,115.53,23.092h0.913c63.806,0,115.53-10.258,115.53-23.092
	L314.383,80H80.933z"/>
<path fill="none" stroke="#000000" stroke-miterlimit="10" d="M91.762,76.834"/>
<path fill="#E0E0E0" d="M194.726,105.451c-64.213,0.125-113.764-11.234-113.792-25.567S130.307,53,194.521,53h6.276
	c64.213,0,113.615,12.551,113.587,26.884c-0.028,14.333-49.579,25.753-113.792,25.629L194.726,105.451z"/>
<path fill="#C6C6C6" d="M308.082,75.815c-0.024,12.171-47.846,21.89-109.062,21.771S86.379,87.555,86.402,75.384
	s52.298-22.772,113.514-22.653C261.131,52.85,308.106,63.644,308.082,75.815z"/>
<path opacity="0.5" fill="#939393" d="M81.037,81.63l0.732,47.908c0,0-0.168,4.211,0.505,7.411l5.053,21.561
	c0,0,1.684,6.401,7.58,9.096l0.505,19.371L58.86,222.855l1.684,31.499c0,0,25.266,33.352,138.291,34.868
	c0,0,94.759,0.217,135.837-34.834C334.673,254.388,212.39,233.223,81.037,81.63z"/>
</svg>
