<?xml version="1.0" encoding="utf-8"?>
<!-- Generator: Adobe Illustrator 17.0.2, SVG Export Plug-In . SVG Version: 6.00 Build 0)  -->
<!DOCTYPE svg PUBLIC "-//W3C//DTD SVG 1.1//EN" "http://www.w3.org/Graphics/SVG/1.1/DTD/svg11.dtd">
<svg version="1.1" id="Layer_1" xmlns="http://www.w3.org/2000/svg" xmlns:xlink="http://www.w3.org/1999/xlink" x="0px" y="0px"
	 width="249px" height="309px" viewBox="0 0 249 309" enable-background="new 0 0 249 309" xml:space="preserve">
<rect x="208" y="277.046" fill="#507FA2" width="2" height="4"/>
<path opacity="0.5" fill="#FFFFFF" d="M205.087,278.472"/>
<path opacity="0.5" fill="#FFFFFF" d="M206.189,278.472"/>
<path fill="#6FAFDE" d="M209.564,278.472c-1.268,0.021-2.026-0.232-2.026-0.232v-1.886c0,0-0.455-0.228-0.948-0.721
	c-0.841-0.841-0.826-2.163-0.826-2.163v-10.488c-0.887-0.943-1.375-2.22-1.375-2.22c-0.381-0.819-0.399-2.155-0.399-2.155v-12.423
	l0.009-0.165c-0.766-0.098-0.896-0.129-1.783-0.261v-5.027V92.824c0,0,2.723,3.549,6.813,3.549h-0.032
	c4.09,0,6.813,1.459,6.813,1.459v147.91v0.018c-0.887,0.132-1.017,0.162-1.783,0.261l0.009,0.165v12.423
	c0,0-0.018,1.336-0.399,2.155c0,0-0.488,1.276-1.375,2.22v10.488c0,0,0.015,1.322-0.826,2.163c-0.493,0.493-0.948,0.721-0.948,0.721
	v1.886c0,0-0.758,0.253-2.026,0.232H209.564z"/>
<rect x="40" y="37" fill="#6FAFDE" width="143" height="241"/>
<path fill="none" stroke="#FFFFFF" stroke-miterlimit="10" d="M209.758,110.57"/>
<path fill="none" stroke="#FFFFFF" stroke-miterlimit="10" d="M209.758,109.13"/>
<path opacity="0.5" fill="#FFFFFF" d="M207.994,281.069l-0.004-2.704c-0.604-0.069-0.457-0.109-0.457-0.109v-1.886
	c0,0-0.455-0.228-0.948-0.721c-0.841-0.841-0.826-2.163-0.826-2.163v-10.488c-0.887-0.943-1.375-2.22-1.375-2.22
	c-0.381-0.819-0.399-2.155-0.399-2.155v-12.423l0.009-0.165c-0.767-0.098-0.896-0.129-1.783-0.26v-0.018v-19.919
	c7.107,7.107,13.594,10.397,13.594,10.397v9.522v0.018c-0.887,0.132-1.017,0.162-1.783,0.26l0.009,0.165v12.423
	c0,0-0.018,1.336-0.399,2.155c0,0-0.488,1.276-1.375,2.22v10.488c0,0,0.015,1.322-0.826,2.163c-0.493,0.493-0.948,0.721-0.948,0.721
	v1.886c0,0,0.11,0.039-0.453,0.108l-0.004,2.714L207.994,281.069z"/>
<rect x="64" y="112" fill="#FFFFFF" width="16" height="17"/>
<rect x="64" y="139" fill="#FFFFFF" width="16" height="16"/>
<rect x="64" y="164" fill="#FFFFFF" width="16" height="18"/>
<rect x="64" y="190" fill="#FFFFFF" width="16" height="18"/>
<rect x="64" y="217" fill="#FFFFFF" width="16" height="16"/>
<rect x="64" y="243" fill="#FFFFFF" width="16" height="17"/>
<line fill="none" stroke="#FFFFFF" stroke-miterlimit="10" x1="89" y1="119.5" x2="157" y2="119.5"/>
<line fill="none" stroke="#FFFFFF" stroke-miterlimit="10" x1="89" y1="146.5" x2="157" y2="146.5"/>
<rect x="64" y="57" fill="#FFFFFF" width="16" height="17"/>
<rect x="64" y="84" fill="#FFFFFF" width="16" height="16"/>
<line fill="none" stroke="#FFFFFF" stroke-miterlimit="10" x1="89" y1="64.5" x2="157" y2="64.5"/>
<line fill="none" stroke="#FFFFFF" stroke-miterlimit="10" x1="89" y1="91.5" x2="157" y2="91.5"/>
<line fill="none" stroke="#FFFFFF" stroke-miterlimit="10" x1="89" y1="172.5" x2="157" y2="172.5"/>
<line fill="none" stroke="#FFFFFF" stroke-miterlimit="10" x1="89" y1="199.5" x2="157" y2="199.5"/>
<line fill="none" stroke="#FFFFFF" stroke-miterlimit="10" x1="89" y1="225.5" x2="157" y2="225.5"/>
<line fill="none" stroke="#FFFFFF" stroke-miterlimit="10" x1="89" y1="251.5" x2="157" y2="251.5"/>
<path opacity="0.5" fill="#FFFFFF" d="M40,278h143v-66.022C101,149.745,40.165,81.781,40.165,81.781L40,278z"/>
<path fill="#6FAFDE" d="M216.328,39.389c0,0,2.881,1.995,3.989,4.654c0,0,1.011,23.27-3.989,50.53V39.389z"/>
<path fill="#507FA2" d="M216.527,99.483V37.978v-0.069c-0.887-0.57-5.132-0.855-7.796-0.855c-2.716,0-5.009,0.334-7.307,0.926
	l0.118,0.145l0.032,61.373l0.022,0.18c2.299-0.591,4.448-0.918,7.165-0.918c2.664,0,5.992,0.293,7.766,0.863V99.483z"/>
</svg>
