<?xml version="1.0" encoding="utf-8"?>
<!-- Generator: Adobe Illustrator 17.0.2, SVG Export Plug-In . SVG Version: 6.00 Build 0)  -->
<!DOCTYPE svg PUBLIC "-//W3C//DTD SVG 1.1//EN" "http://www.w3.org/Graphics/SVG/1.1/DTD/svg11.dtd">
<svg version="1.1" id="Layer_1" xmlns="http://www.w3.org/2000/svg" xmlns:xlink="http://www.w3.org/1999/xlink" x="0px" y="0px"
	 width="396px" height="400px" viewBox="0 0 396 400" enable-background="new 0 0 396 400" xml:space="preserve">
<path fill="#4D4D4D" d="M207.438,301.537c-0.009,3.253,2.621,5.897,5.874,5.906l0,0c3.253,0.009,5.897-2.621,5.906-5.874
	l-0.506-168.21c0.009-3.253-1.608-5.695-4.861-5.704l0,0c-3.253-0.009-4.391,2.219-4.4,5.472L207.438,301.537z"/>
<path fill="#ADADAD" d="M282.458,171.546l60.653,15.187c3.083-4.98,5.504-10.603,7.114-17.033
	c1.681-6.712,2.129-13.247,1.613-19.128l-60.045-15.034L282.458,171.546z"/>
<path fill="#808080" d="M261.576,122.22l31.178,7.807c0.287,6.782-0.636,15.224-2.734,23.6c-2.098,8.377-5.036,15.676-8.636,22.124
	l-31.854-7.976L261.576,122.22z"/>
<path fill="none" stroke="#EB5A24" stroke-miterlimit="10" d="M201.027,162.063"/>
<ellipse transform="matrix(-0.9701 -0.2429 0.2429 -0.9701 259.4219 267.425)" fill="#4D4D4D" cx="146.196" cy="117.72" rx="2.637" ry="27.533"/>
<path fill="#666666" d="M125.025,139.477c0.746-7.163,2.427-16.4,4.857-26.102c2.429-9.702,5.15-18.046,7.868-24.715L77.293,73.521
	c-4.385,6.252-8.186,14.642-10.615,24.344c-2.429,9.702-3.03,18.893-2.109,26.474L125.025,139.477z"/>
<ellipse transform="matrix(-0.9701 -0.2429 0.2429 -0.9701 369.6493 309.9265)" fill="#4D4D4D" cx="203.93" cy="132.176" rx="2.637" ry="27.533"/>
<path fill="#666666" d="M250.507,168.978l-111.515-27.922c-0.997-7.28-0.576-15.749,1.695-24.82
	c2.271-9.071,5.967-17.04,10.201-22.69l111.515,27.922l1.139,0.285c-0.985,7.422-2.564,15.614-4.644,23.922
	c-2.092,8.356-4.553,16.275-7.267,23.585L250.507,168.978z"/>
<path fill="#4D4D4D" d="M152.718,90.991c-3.517,6.924-6.602,15.046-9.04,24.784c-2.59,10.343-3.913,20.362-3.998,28.649
	l-14.955-3.745c0.037-8.299,1.293-18.18,3.919-28.669c2.356-9.41,5.491-18.011,8.871-24.821L152.718,90.991z"/>
<path fill="none" stroke="#EB5A24" stroke-miterlimit="10" d="M260.543,162.063"/>
<path fill="#4D4D4D" d="M210.452,105.447c-3.517,6.924-6.602,15.046-9.04,24.784c-2.59,10.343-3.913,20.362-3.998,28.649
	l-19.165-4.799c0.037-8.299,1.293-18.18,3.919-28.669c2.356-9.41,5.491-18.011,8.871-24.821L210.452,105.447z"/>
<path fill="#4D4D4D" d="M237.124,347.551c0.496,3.215,3.504,5.419,6.719,4.923l0,0c3.215-0.496,5.419-3.504,4.923-6.719
	l-28.35-183.814c-0.496-3.215-3.504-5.419-6.719-4.923l0,0c-3.215,0.496-5.419,3.504-4.923,6.719L237.124,347.551z"/>
<path fill="#4D4D4D" d="M170.791,341.548c-0.655,3.186,1.396,6.3,4.582,6.955l0,0c3.186,0.655,6.3-1.396,6.955-4.582l37.465-182.175
	c0.655-3.186-1.396-6.3-4.582-6.955l0,0c-3.186-0.655-6.3,1.396-6.955,4.582L170.791,341.548z"/>
<g opacity="0.5">
	<path fill="#808080" d="M219.002,230.052l0.215,71.517c-0.009,3.253-2.653,5.882-5.906,5.873c-3.253-0.009-5.883-2.653-5.874-5.906
		l1.011-84.629l4.872-23.689L219.002,230.052z"/>
	<path fill="#808080" d="M283.444,171.793c1.599-3.263,3.036-6.735,4.294-10.437c28.897,6.576,51.625,10.95,61.219,12.732
		c-1.518,4.64-3.486,8.833-5.846,12.645L283.444,171.793z"/>
	<path fill="#808080" d="M281.384,175.751l-29.434-7.37c1.678-4.586,3.257-9.405,4.708-14.417
		c10.884,2.705,21.332,5.174,31.079,7.392c-1.258,3.702-2.695,7.174-4.294,10.437C282.781,173.144,282.1,174.469,281.384,175.751z"
		/>
	<path fill="#808080" d="M141.46,141.674c-0.738,1.627-1.351,2.596-1.78,2.739c0.011-1.028,0.041-2.083,0.089-3.162L141.46,141.674z
		"/>
	<path fill="#808080" d="M139.509,144.429c-0.048-0.012-0.092-0.041-0.133-0.081l0.288,0.072
		C139.61,144.436,139.557,144.441,139.509,144.429z"/>
	<path fill="#808080" d="M64.569,124.339c-0.921-7.58-0.32-16.771,2.109-26.474c1.338-5.343,3.102-10.269,5.141-14.678
		c14.18,10.905,33.92,21.11,56.438,30.462c-2.229,9.355-3.361,18.17-3.504,25.759L64.569,124.339z"/>
	<path fill="#808080" d="M197.243,158.884c-0.048-0.012-0.092-0.041-0.133-0.081l0.288,0.072
		C197.343,158.892,197.291,158.896,197.243,158.884z"/>
	<path fill="#808080" d="M199.194,156.13c-0.738,1.627-1.351,2.596-1.78,2.739c0.01-1.028,0.04-2.083,0.089-3.162L199.194,156.13z"
		/>
	<path fill="#808080" d="M141.46,141.674l-1.69-0.423c0.298-6.582,1.31-14.057,3.043-21.813c12.13,4.626,24.841,9.016,37.755,13.151
		c-1.287,6.535-2.028,12.729-2.249,18.314L141.46,141.674z"/>
	<path fill="#808080" d="M251.632,169.26l-1.125-0.282l-30.2-7.562c-0.098-0.396-0.234-0.774-0.405-1.13
		c-0.121-2.628-1.997-4.942-4.691-5.496c-2.871-0.59-5.677,1.021-6.685,3.676l-9.333-2.337l-1.69-0.423
		c0.239-5.277,0.943-11.131,2.102-17.24c19.399,5.78,38.833,10.969,57.053,15.497c-1.451,5.013-3.029,9.831-4.708,14.417
		C251.844,168.673,251.739,168.97,251.632,169.26z"/>
	<path fill="#808080" d="M139.77,141.251c-0.049,1.079-0.079,2.134-0.089,3.162c0,0.004,0,0.008,0,0.011l-0.016-0.004l-0.288-0.072
		l-14.652-3.669c0.002-0.414,0.021-0.849,0.029-1.271c0.143-7.589,1.275-16.404,3.504-25.759c4.738,1.968,9.598,3.898,14.556,5.789
		C141.08,127.194,140.068,134.669,139.77,141.251z"/>
	<path fill="#808080" d="M197.503,155.707c-0.049,1.079-0.079,2.134-0.089,3.162c0,0.004,0,0.008,0,0.011l-0.016-0.004l-0.288-0.072
		l-18.861-4.723c0.005-1.035,0.029-2.095,0.071-3.178c0.221-5.585,0.962-11.779,2.249-18.314c6.312,2.021,12.672,3.981,19.037,5.877
		C198.446,144.576,197.742,150.43,197.503,155.707z"/>
	<path fill="#808080" d="M219.793,161.746c0.101-0.492,0.131-0.98,0.109-1.46c0.171,0.356,0.307,0.734,0.405,1.13
		c0.043,0.172,0.081,0.347,0.108,0.525l28.35,183.814c0.496,3.215-1.708,6.223-4.923,6.719c-3.215,0.496-6.223-1.708-6.719-4.923
		l-18.122-117.499l-5.681-36.834L219.793,161.746z"/>
	<path fill="#808080" d="M215.211,154.791c2.695,0.554,4.571,2.868,4.691,5.496c0.022,0.479-0.008,0.968-0.109,1.46l-6.472,31.472
		l-4.872,23.689l-26.121,127.013c-0.655,3.186-3.769,5.238-6.955,4.582s-5.238-3.769-4.583-6.955l37.465-182.175
		c0.065-0.315,0.16-0.615,0.271-0.906C209.533,155.812,212.34,154.2,215.211,154.791z"/>
</g>
</svg>
